<svg xmlns="http://www.w3.org/2000/svg" version="1.1" xmlns:xlink="http://www.w3.org/1999/xlink" xmlns:svgjs="http://svgjs.dev/svgjs" width="1500" height="1500" viewBox="0 0 1500 1500"><rect width="1500" height="1500" fill="#c8c8c8"></rect><g transform="matrix(0.6666666666666666,0,0,0.6666666666666666,249.39393939393938,652.1600017523483)"><svg viewBox="0 0 396 77" data-background-color="#c8c8c8" preserveAspectRatio="xMidYMid meet" height="291" width="1500" xmlns="http://www.w3.org/2000/svg" xmlns:xlink="http://www.w3.org/1999/xlink"><g id="tight-bounds" transform="matrix(1,0,0,1,0.2400000000000091,0.3334013663359485)"><svg viewBox="0 0 395.52 76.3331972673281" height="76.3331972673281" width="395.52"><g><svg viewBox="0 0 573.8403906828157 110.74805760000001" height="76.3331972673281" width="395.52"><g><svg viewBox="0 0 573.8403906828157 110.74805760000001" height="110.74805760000001" width="573.8403906828157"><g id="textblocktransform"><svg viewBox="0 0 573.8403906828157 110.74805760000001" height="110.74805760000001" width="573.8403906828157" id="textblock"><g><svg viewBox="0 0 573.8403906828157 78.6348" height="78.6348" width="573.8403906828157"><g><svg><g></g><g></g></svg></g><g><svg><g></g><g><svg></svg></g></svg></g><g id="text-0"><svg viewBox="0 0 573.8403906828157 78.6348" height="78.6348" width="573.8403906828157"><g transform="matrix(1,0,0,1,0,15.017399999999999)"><svg width="258.05" viewBox="4 -37 258.03 48.6" height="48.6" data-palette-color="#000000"><path d="M8.5 0L4 0 4-26 8.35-26 8.35-21.65Q9.75-23.75 11.9-25.18 14.05-26.6 16.8-26.6L16.8-26.6Q19.9-26.6 21.88-25.1 23.85-23.6 24.65-21.1L24.65-21.1Q26.2-23.4 28.33-25 30.45-26.6 33.6-26.6L33.6-26.6Q37.85-26.6 39.93-23.93 42-21.25 42-16.95L42-16.95 42 0 37.5 0 37.5-16.6Q37.5-19.3 36.25-20.98 35-22.65 32.8-22.65L32.8-22.65Q30.55-22.65 28.63-20.98 26.7-19.3 25.25-17.05L25.25-17.05 25.25 0 20.75 0 20.75-16.6Q20.75-19.3 19.5-20.98 18.25-22.65 16.05-22.65L16.05-22.65Q13.85-22.65 11.9-21.03 9.95-19.4 8.5-17.2L8.5-17.2 8.5 0ZM59.7 0.6L59.7 0.6Q56.45 0.6 53.8-1.05 51.15-2.7 49.57-5.73 48-8.75 48-12.85L48-12.85Q48-16.75 49.57-19.85 51.15-22.95 53.92-24.78 56.7-26.6 60.3-26.6L60.3-26.6Q62.55-26.6 64.37-25.83 66.2-25.05 67.55-23.9L67.55-23.9 67.55-26 71.65-26 71.65-6.3Q71.65-4.4 72.57-3.83 73.5-3.25 74.6-3.25L74.6-3.25 73.65 0.25Q68.85 0.25 67.85-3.65L67.85-3.65Q66.7-2.05 64.72-0.73 62.75 0.6 59.7 0.6ZM60.7-3.4L60.7-3.4Q62.6-3.4 64.3-4.33 66-5.25 67.15-6.65L67.15-6.65 67.15-20.6Q65.8-21.55 64.17-22.13 62.55-22.7 60.75-22.7L60.75-22.7Q58.35-22.7 56.52-21.48 54.7-20.25 53.65-18.07 52.6-15.9 52.6-13L52.6-13Q52.6-10.2 53.65-8.03 54.7-5.85 56.55-4.63 58.4-3.4 60.7-3.4ZM89.64 11.6L89.64 11.6Q87.34 11.6 85.17 11.05 83 10.5 81.3 9.4L81.3 9.4 82.94 5.5Q84.14 6.45 85.75 7.08 87.34 7.7 89.64 7.7L89.64 7.7Q93.19 7.7 95.22 5.83 97.25 3.95 97.25-0.15L97.25-0.15 97.25-3.35Q96.25-2.15 94.37-1.07 92.5 0 89.89 0L89.89 0Q86.94 0 84.3-1.53 81.64-3.05 80-6 78.34-8.95 78.34-13.1L78.34-13.1Q78.34-17 79.97-20.05 81.59-23.1 84.34-24.85 87.09-26.6 90.39-26.6L90.39-26.6Q92.59-26.6 94.39-25.85 96.19-25.1 97.5-24L97.5-24 97.5-26 101.59-26 101.59-0.6Q101.59 3.7 100.09 6.4 98.59 9.1 95.92 10.35 93.25 11.6 89.64 11.6ZM90.89-4L90.89-4Q92.89-4 94.5-4.9 96.09-5.8 97.09-7L97.09-7 97.09-20.6Q96-21.4 94.44-22.05 92.89-22.7 90.84-22.7L90.84-22.7Q88.8-22.7 87-21.6 85.19-20.5 84.07-18.43 82.94-16.35 82.94-13.35L82.94-13.35Q82.94-10.5 84.07-8.4 85.19-6.3 87-5.15 88.8-4 90.89-4ZM119.29 0.6L119.29 0.6Q116.04 0.6 113.39-1.05 110.74-2.7 109.17-5.73 107.59-8.75 107.59-12.85L107.59-12.85Q107.59-16.75 109.17-19.85 110.74-22.95 113.52-24.78 116.29-26.6 119.89-26.6L119.89-26.6Q122.14-26.6 123.97-25.83 125.79-25.05 127.14-23.9L127.14-23.9 127.14-26 131.24-26 131.24-6.3Q131.24-4.4 132.17-3.83 133.09-3.25 134.19-3.25L134.19-3.25 133.24 0.25Q128.44 0.25 127.44-3.65L127.44-3.65Q126.29-2.05 124.32-0.73 122.34 0.6 119.29 0.6ZM120.29-3.4L120.29-3.4Q122.19-3.4 123.89-4.33 125.59-5.25 126.74-6.65L126.74-6.65 126.74-20.6Q125.39-21.55 123.77-22.13 122.14-22.7 120.34-22.7L120.34-22.7Q117.94-22.7 116.12-21.48 114.29-20.25 113.24-18.07 112.19-15.9 112.19-13L112.19-13Q112.19-10.2 113.24-8.03 114.29-5.85 116.14-4.63 117.99-3.4 120.29-3.4ZM148.09 0.6L148.09 0.6Q145.79 0.6 143.94-0.28 142.09-1.15 141.01-3.1 139.94-5.05 139.94-8.15L139.94-8.15 139.94-37 144.44-37 144.44-8.6Q144.44-5.9 145.56-4.6 146.69-3.3 148.69-3.3L148.69-3.3Q149.64-3.3 150.56-3.53 151.49-3.75 152.14-4.05L152.14-4.05 153.24-0.4Q152.34 0 151.01 0.3 149.69 0.6 148.09 0.6ZM161.99 0L157.49 0 157.49-37 161.99-37 161.99-21.85Q163.39-23.9 165.54-25.25 167.69-26.6 170.59-26.6L170.59-26.6Q174.99-26.6 177.16-23.95 179.34-21.3 179.34-16.95L179.34-16.95 179.34 0 174.84 0 174.84-16.45Q174.84-19.25 173.54-20.95 172.24-22.65 169.89-22.65L169.89-22.65Q167.59-22.65 165.51-21.03 163.44-19.4 161.99-17.2L161.99-17.2 161.99 0ZM197.03 0.6L197.03 0.6Q193.78 0.6 191.14-1.05 188.49-2.7 186.91-5.73 185.34-8.75 185.34-12.85L185.34-12.85Q185.34-16.75 186.91-19.85 188.49-22.95 191.26-24.78 194.03-26.6 197.64-26.6L197.64-26.6Q199.89-26.6 201.71-25.83 203.54-25.05 204.89-23.9L204.89-23.9 204.89-26 208.99-26 208.99-6.3Q208.99-4.4 209.91-3.83 210.84-3.25 211.94-3.25L211.94-3.25 210.99 0.25Q206.19 0.25 205.19-3.65L205.19-3.65Q204.04-2.05 202.06-0.73 200.09 0.6 197.03 0.6ZM198.03-3.4L198.03-3.4Q199.94-3.4 201.64-4.33 203.34-5.25 204.49-6.65L204.49-6.65 204.49-20.6Q203.14-21.55 201.51-22.13 199.89-22.7 198.09-22.7L198.09-22.7Q195.69-22.7 193.86-21.48 192.03-20.25 190.99-18.07 189.94-15.9 189.94-13L189.94-13Q189.94-10.2 190.99-8.03 192.03-5.85 193.89-4.63 195.74-3.4 198.03-3.4ZM227.83 0.6L227.83 0.6Q222.23 0.6 218.96-2.98 215.68-6.55 215.68-13L215.68-13Q215.68-16.9 217.16-19.98 218.63-23.05 221.28-24.83 223.93-26.6 227.43-26.6L227.43-26.6Q231.18-26.6 233.66-24.98 236.13-23.35 237.38-20.6 238.63-17.85 238.63-14.55L238.63-14.55Q238.63-12.8 238.48-11.15L238.48-11.15 220.28-11.15Q220.73-7.5 222.83-5.45 224.93-3.4 228.38-3.4L228.38-3.4Q230.63-3.4 232.43-3.88 234.23-4.35 235.88-5.1L235.88-5.1 236.93-1.25Q235.13-0.45 232.88 0.08 230.63 0.6 227.83 0.6ZM220.23-14.8L220.23-14.8 234.48-14.8Q234.48-18.6 232.58-20.65 230.68-22.7 227.33-22.7L227.33-22.7Q224.43-22.7 222.53-20.68 220.63-18.65 220.23-14.8ZM251.63 0.6L251.63 0.6Q248.68 0.6 246.31-0.15 243.93-0.9 242.38-2.1L242.38-2.1 244.28-5.85Q245.58-4.75 247.56-4.03 249.53-3.3 251.78-3.3L251.78-3.3Q254.58-3.3 256-4.23 257.43-5.15 257.43-6.6L257.43-6.6Q257.43-7.65 256.9-8.45 256.38-9.25 254.98-10.03 253.58-10.8 250.93-11.7L250.93-11.7Q247.28-12.95 245.45-14.68 243.63-16.4 243.63-19.45L243.63-19.45Q243.63-22.45 246.25-24.53 248.88-26.6 253.53-26.6L253.53-26.6Q256.03-26.6 257.98-26.08 259.93-25.55 261.48-24.75L261.48-24.75 260.23-21.05Q258.88-21.85 257.15-22.35 255.43-22.85 253.33-22.85L253.33-22.85Q250.73-22.85 249.38-21.8 248.03-20.75 248.03-19.5L248.03-19.5Q248.03-18.3 249.08-17.45 250.13-16.6 253.18-15.6L253.18-15.6Q258.13-13.95 260.08-11.95 262.03-9.95 262.03-6.95L262.03-6.95Q262.03-3.45 259.2-1.43 256.38 0.6 251.63 0.6Z" opacity="1" transform="matrix(1,0,0,1,0,0)" fill="#000000" class="undefined-tk-0"></path></svg></g><g><svg xmlns="http://www.w3.org/2000/svg" xmlns:xlink="http://www.w3.org/1999/xlink" version="1.1" x="276.6152" y="0" viewBox="5 29.49391886595174 90 41.01258914071542" enable-background="new 0 0 100 100" xml:space="preserve" height="78.6348" width="172.55999068281565" class="icon-dxe-0" data-fill-palette-color="accent" id="dxe-0"><g fill="#000000" data-fill-palette-color="accent"><path d="M23.943 30.807L5 50.001 23.942 69.193A4.386 4.386 0 0 0 30.2 69.195 4.52 4.52 0 0 0 30.202 62.857L18.193 50.695 14.569 52.984 30.203 37.143A4.5 4.5 0 0 0 31.498 33.975 4.5 4.5 0 0 0 30.201 30.805 4.387 4.387 0 0 0 23.943 30.807" fill="#000000" data-fill-palette-color="accent"></path><path d="M76.057 30.808L95 50.001 76.058 69.193A4.386 4.386 0 0 1 69.8 69.195 4.52 4.52 0 0 1 69.798 62.857L81.807 50.696 85.431 52.985 69.796 37.144A4.5 4.5 0 0 1 68.501 33.976 4.5 4.5 0 0 1 69.798 30.806 4.386 4.386 0 0 1 76.057 30.808" fill="#000000" data-fill-palette-color="accent"></path><path d="M60.899 32.352A4.5 4.5 0 0 0 58.533 29.876 4.386 4.386 0 0 0 52.708 32.164L38.888 64.226A4.5 4.5 0 0 0 38.84 67.648 4.5 4.5 0 0 0 41.206 70.124 4.386 4.386 0 0 0 47.031 67.836L60.851 35.774A4.5 4.5 0 0 0 60.899 32.352" fill="#000000" data-fill-palette-color="accent"></path></g></svg></g><g transform="matrix(1,0,0,1,467.7403906828157,15.017399999999997)"><svg width="106.10000000000002" viewBox="2.25 -37 106.09 37.6" height="37.6" data-palette-color="#000000"><path d="M14.5 0.6L14.5 0.6Q10.8 0.6 8.03-1.13 5.25-2.85 3.75-5.93 2.25-9 2.25-13L2.25-13Q2.25-16.75 3.78-19.85 5.3-22.95 8.15-24.78 11-26.6 14.85-26.6L14.85-26.6Q17.05-26.6 18.73-26.2 20.4-25.8 21.95-25.05L21.95-25.05 20.6-21.25Q19.2-21.95 17.93-22.28 16.65-22.6 15.1-22.6L15.1-22.6Q11.6-22.6 9.22-20.08 6.85-17.55 6.85-13.1L6.85-13.1Q6.85-10.4 7.85-8.2 8.85-6 10.63-4.7 12.4-3.4 14.8-3.4L14.8-3.4Q16.7-3.4 18.05-3.83 19.4-4.25 20.95-5.05L20.95-5.05 22.35-1.25Q20.8-0.4 18.88 0.1 16.95 0.6 14.5 0.6ZM38.05 0.6L38.05 0.6Q34.35 0.6 31.4-1.13 28.45-2.85 26.77-5.93 25.1-9 25.1-13L25.1-13Q25.1-17.2 26.8-20.25 28.5-23.3 31.45-24.95 34.4-26.6 38.05-26.6L38.05-26.6Q41.7-26.6 44.62-24.95 47.55-23.3 49.27-20.28 51-17.25 51-13.1L51-13.1Q51-8.95 49.3-5.88 47.6-2.8 44.67-1.1 41.75 0.6 38.05 0.6ZM38.05-3.4L38.05-3.4Q42-3.4 44.2-6.08 46.4-8.75 46.4-13L46.4-13Q46.4-15.6 45.3-17.78 44.2-19.95 42.32-21.28 40.45-22.6 38.05-22.6L38.05-22.6Q34.1-22.6 31.9-20 29.7-17.4 29.7-13.1L29.7-13.1Q29.7-10.5 30.8-8.28 31.9-6.05 33.77-4.73 35.65-3.4 38.05-3.4ZM66.84 0.6L66.84 0.6Q63.65 0.6 61-1.05 58.35-2.7 56.8-5.73 55.25-8.75 55.25-12.85L55.25-12.85Q55.25-16.8 56.82-19.9 58.4-23 61.02-24.8 63.65-26.6 66.8-26.6L66.8-26.6Q69.4-26.6 71.27-25.55 73.15-24.5 74.2-23.4L74.2-23.4 74.2-37 78.7-37 78.7-6.3Q78.7-4.4 79.62-3.83 80.55-3.25 81.65-3.25L81.65-3.25 80.7 0.25Q75.95 0.25 74.9-3.55L74.9-3.55Q73.8-2 71.82-0.7 69.84 0.6 66.84 0.6ZM67.84-3.4L67.84-3.4Q69.7-3.4 71.37-4.28 73.05-5.15 74.2-6.55L74.2-6.55 74.2-19.45Q73.25-20.65 71.55-21.68 69.84-22.7 67.8-22.7L67.8-22.7Q65.4-22.7 63.6-21.4 61.8-20.1 60.82-17.93 59.85-15.75 59.85-13L59.85-13Q59.85-10.25 60.9-8.08 61.95-5.9 63.77-4.65 65.59-3.4 67.84-3.4ZM97.54 0.6L97.54 0.6Q91.94 0.6 88.67-2.98 85.39-6.55 85.39-13L85.39-13Q85.39-16.9 86.87-19.98 88.34-23.05 90.99-24.83 93.64-26.6 97.14-26.6L97.14-26.6Q100.89-26.6 103.37-24.98 105.84-23.35 107.09-20.6 108.34-17.85 108.34-14.55L108.34-14.55Q108.34-12.8 108.19-11.15L108.19-11.15 89.99-11.15Q90.44-7.5 92.54-5.45 94.64-3.4 98.09-3.4L98.09-3.4Q100.34-3.4 102.14-3.88 103.94-4.35 105.59-5.1L105.59-5.1 106.64-1.25Q104.84-0.45 102.59 0.08 100.34 0.6 97.54 0.6ZM89.94-14.8L89.94-14.8 104.19-14.8Q104.19-18.6 102.29-20.65 100.39-22.7 97.04-22.7L97.04-22.7Q94.14-22.7 92.24-20.68 90.34-18.65 89.94-14.8Z" opacity="1" transform="matrix(1,0,0,1,0,0)" fill="#000000" class="undefined-tk-1"></path></svg></g></svg></g></svg></g><g transform="matrix(1,0,0,1,152.05061717239377,87.5112576)"><svg viewBox="0 0 269.7391563380282 23.236800000000002" height="23.236800000000002" width="269.7391563380282"><g transform="matrix(1,0,0,1,0,0)"><svg width="269.7391563380282" viewBox="3.5 -43.65 659.29 56.8" height="23.236800000000002" data-palette-color="#000000"><path d="M38.1-40.2L38.1-27.7 36.6-27.2 29.95-37.05 23.85-37.05 23.85-3.8 29.1-2 28.1 0 12.9 0 12.9-1.55 17.6-5.25 17.6-37.05 11.65-37.05 5-27.2 3.5-27.7 3.5-40.2 6.2-39.3 35.4-39.3 38.1-40.2ZM70.3-2L69.3 0 59.8 0 59.8-5.2 53.45 0.1Q52.4 0.5 50.7 0.5L50.7 0.5Q47.3 0.5 45.3-1.58 43.3-3.65 43.3-7.2L43.3-7.2 43.3-19.15 38.85-21.75 38.85-23.3 47.4-27.5 49.3-27.5 49.3-9.7Q49.3-6.95 50.15-5.85 51-4.75 53.2-4.75L53.2-4.75Q54.75-4.75 56.25-5.33 57.75-5.9 59.8-7.6L59.8-7.6 59.8-19.15 55.35-21.75 55.35-23.3 63.9-27.5 65.8-27.5 65.8-3.75 70.3-2ZM92.85-27Q94.5-27 95.75-26.1 97-25.2 97.7-23.6L97.7-23.6 94.4-19.45 92.5-19.45Q92.3-20.7 91.77-21.23 91.25-21.75 90.35-21.75L90.35-21.75Q89.25-21.75 88.02-21.18 86.8-20.6 85.25-19L85.25-19 85.25-4.1 92.25-1.95 91.25 0.05 74.8 0.05 74.8-1.5 79.25-5 79.25-19.15 74.8-21.75 74.8-23.3 83.35-27.5 84.9-21.35 90.1-26.65Q91.15-27.05 92.85-27.05L92.85-27.05 92.85-27ZM132.69-1.95L131.69 0.05 122.19 0.05 122.19-16.8Q122.19-19.55 121.34-20.65 120.49-21.75 118.29-21.75L118.29-21.75Q116.64-21.75 115.02-21.15 113.39-20.55 111.19-18.85L111.19-18.85 111.19-3.7 115.69-1.95 114.69 0.05 100.74 0.05 100.74-1.5 105.19-5 105.19-19.15 100.74-21.75 100.74-23.3 109.29-27.5 110.94-21 118.04-26.65Q119.09-27.05 120.79-27.05L120.79-27.05Q124.19-27.05 126.19-24.98 128.19-22.9 128.19-19.35L128.19-19.35 128.19-3.75 132.69-1.95ZM151.64-2L150.64 0 136.69 0 136.69-1.55 141.14-5.05 141.14-19.65 136.69-22.75 136.69-24.3 145.24-27.5 147.14-27.5 147.14-3.75 151.64-2ZM143.94-42.5Q145.44-42.5 146.42-41.4 147.39-40.3 147.39-38.65L147.39-38.65Q147.39-37.5 146.69-36.48 145.99-35.45 144.94-34.85 143.89-34.25 142.89-34.25L142.89-34.25Q141.39-34.25 140.42-35.35 139.44-36.45 139.44-38.1L139.44-38.1Q139.44-39.25 140.14-40.28 140.84-41.3 141.89-41.9 142.94-42.5 143.94-42.5L143.94-42.5ZM188.09-1.95L187.09 0.05 177.59 0.05 177.59-16.8Q177.59-19.55 176.74-20.65 175.89-21.75 173.69-21.75L173.69-21.75Q172.04-21.75 170.41-21.15 168.79-20.55 166.59-18.85L166.59-18.85 166.59-3.7 171.09-1.95 170.09 0.05 156.14 0.05 156.14-1.5 160.59-5 160.59-19.15 156.14-21.75 156.14-23.3 164.69-27.5 166.34-21 173.44-26.65Q174.49-27.05 176.19-27.05L176.19-27.05Q179.59-27.05 181.59-24.98 183.59-22.9 183.59-19.35L183.59-19.35 183.59-3.75 188.09-1.95ZM219.89-23.1L213.99-23.1Q215.39-21.1 215.39-18.6L215.39-18.6Q215.39-16.4 214.14-14.28 212.89-12.15 210.79-10.55 208.69-8.95 206.19-8.15L206.19-8.15Q204.84-6.8 204.84-5.3L204.84-5.3Q204.84-4.45 206.16-3.73 207.49-3 210.09-2L210.09-2Q213.64-0.6 215.56 0.58 217.49 1.75 217.49 3.45L217.49 3.45Q217.49 4.95 215.56 7.3 213.64 9.65 210.79 11.4 207.94 13.15 205.29 13.15L205.29 13.15Q202.49 13.15 198.66 12.2 194.84 11.25 192.29 10.3L192.29 10.3 192.29 2.6 194.19 2.6Q196.99 6.05 199.89 7.85 202.79 9.65 206.44 9.65L206.44 9.65Q207.79 9.65 208.91 9.1 210.04 8.55 210.66 7.73 211.29 6.9 211.29 6.15L211.29 6.15Q211.29 4.8 209.74 3.83 208.19 2.85 204.89 1.45L204.89 1.45Q201.74 0.15 200.21-0.8 198.69-1.75 198.69-3L198.69-3Q198.69-4.2 200.29-5.45 201.89-6.7 204.09-7.65L204.09-7.65Q203.29-7.5 202.44-7.5L202.44-7.5Q199.79-7.5 197.59-8.68 195.39-9.85 194.11-11.8 192.84-13.75 192.84-16.05L192.84-16.05Q192.84-18.8 194.74-21.35 196.64-23.9 199.66-25.48 202.69-27.05 205.84-27.05L205.84-27.05Q209.34-27.05 211.99-25.05L211.99-25.05 219.84-25.05 219.89-23.1ZM205.34-11.8Q207.59-11.8 208.76-12.93 209.94-14.05 209.94-16.25L209.94-16.25Q209.94-19.25 208.01-21.1 206.09-22.95 202.94-22.95L202.94-22.95Q200.74-22.95 199.56-21.88 198.39-20.8 198.39-18.6L198.39-18.6Q198.39-15.55 200.31-13.68 202.24-11.8 205.34-11.8L205.34-11.8ZM252.98-2L251.98 0 238.03 0 238.03-1.55 242.48-5.05 242.48-19.65 238.03-22.75 238.03-24.3 246.58-27.5 248.48-27.5 248.48-3.75 252.98-2ZM245.28-42.5Q246.78-42.5 247.76-41.4 248.73-40.3 248.73-38.65L248.73-38.65Q248.73-37.5 248.03-36.48 247.33-35.45 246.28-34.85 245.23-34.25 244.23-34.25L244.23-34.25Q242.73-34.25 241.76-35.35 240.78-36.45 240.78-38.1L240.78-38.1Q240.78-39.25 241.48-40.28 242.18-41.3 243.23-41.9 244.28-42.5 245.28-42.5L245.28-42.5ZM288.68-2L287.68 0 278.18 0 278.18-3.6 273.53 0.1Q271.93 0.5 269.68 0.5L269.68 0.5Q266.38 0.5 263.75-1.23 261.13-2.95 259.65-5.9 258.18-8.85 258.18-12.4L258.18-12.4Q258.18-16.25 260.53-19.63 262.88-23 266.4-25.03 269.93-27.05 273.23-27.05L273.23-27.05Q275.98-27.05 278.23-25.5L278.23-25.5 278.23-35.8 273.78-38.9 273.78-40.45 282.33-43.65 284.23-43.65 284.23-3.75 288.68-2ZM272.23-3.75Q273.73-3.75 275.1-4.17 276.48-4.6 278.18-5.8L278.18-5.8 278.18-17.2Q277.88-19.7 275.85-21.28 273.83-22.85 270.33-22.85L270.33-22.85Q264.68-22.85 264.68-14.8L264.68-14.8Q264.68-10.1 266.63-6.93 268.58-3.75 272.23-3.75L272.23-3.75ZM318.63-6.9L309.78 0.1Q307.78 0.5 304.98 0.5L304.98 0.5Q301.68 0.5 299.05-1.23 296.43-2.95 294.95-5.9 293.48-8.85 293.48-12.4L293.48-12.4Q293.48-16.25 295.83-19.63 298.18-23 301.7-25.03 305.23-27.05 308.53-27.05L308.53-27.05Q313.28-27.05 315.9-23.3 318.53-19.55 318.53-13.4L318.53-13.4 300.03-13.4Q300.33-9.15 302.35-6.45 304.38-3.75 307.88-3.75L307.88-3.75Q311.13-3.75 317.13-8.8L317.13-8.8 318.63-6.9ZM305.63-22.85Q300.23-22.85 299.98-15.45L299.98-15.45 311.68-15.45Q311.23-18.15 310.75-19.58 310.28-21 309.1-21.93 307.93-22.85 305.63-22.85L305.63-22.85ZM351.92-2L350.92 0 341.42 0 341.42-4.35 335.77 0.1Q334.77 0.5 333.27 0.5L333.27 0.5Q328.97 0.5 327.05-1.65 325.12-3.8 325.12-6.8L325.12-6.8Q325.12-8.6 326.42-10.35 327.72-12.1 330.12-13.65L330.12-13.65 341.42-13.65 341.42-16.85Q341.42-20.1 339.7-21.45 337.97-22.8 334.97-22.8L334.97-22.8Q331.87-22.8 327.37-19.05L327.37-19.05 325.87-20.95 333.07-26.65Q335.07-27.05 337.87-27.05L337.87-27.05Q342.42-27.05 344.92-24.83 347.42-22.6 347.42-18.35L347.42-18.35 347.42-3.75 351.92-2ZM334.87-3.75Q337.92-3.75 341.42-6.55L341.42-6.55 341.42-11.6 332.57-11.6Q331.92-10.8 331.65-10 331.37-9.2 331.37-8.25L331.37-8.25Q331.37-6.4 332.32-5.08 333.27-3.75 334.87-3.75L334.87-3.75ZM372.02-5.4Q372.02-6.8 370.47-7.98 368.92-9.15 365.72-10.8L365.72-10.8Q363.12-12.15 361.52-13.15 359.92-14.15 358.8-15.48 357.67-16.8 357.67-18.35L357.67-18.35Q357.67-20.15 359.17-22.2 360.67-24.25 362.87-25.65 365.07-27.05 366.97-27.05L366.97-27.05Q369.27-27.05 372.3-26.48 375.32-25.9 376.67-25.2L376.67-25.2 376.67-17.5 374.77-17.5Q373.17-20.6 371.07-22.33 368.97-24.05 366.77-24.05L366.77-24.05Q365.22-24.05 364.27-23.23 363.32-22.4 363.32-21.15L363.32-21.15Q363.32-19.6 364.94-18.38 366.57-17.15 369.87-15.5L369.87-15.5Q372.42-14.2 373.97-13.25 375.52-12.3 376.6-11.03 377.67-9.75 377.67-8.2L377.67-8.2Q377.67-6.35 376.1-4.33 374.52-2.3 372.25-0.9 369.97 0.5 368.07 0.5L368.07 0.5Q365.62 0.5 362.25-0.08 358.87-0.65 357.42-1.35L357.42-1.35 357.42-9.05 359.32-9.05Q361.07-5.95 363.47-4.23 365.87-2.5 368.32-2.5L368.32-2.5Q369.97-2.5 371-3.35 372.02-4.2 372.02-5.4L372.02-5.4ZM412.76-2L411.76 0 397.81 0 397.81-1.55 402.26-5.05 402.26-19.65 397.81-22.75 397.81-24.3 406.37-27.5 408.26-27.5 408.26-3.75 412.76-2ZM405.06-42.5Q406.56-42.5 407.54-41.4 408.51-40.3 408.51-38.65L408.51-38.65Q408.51-37.5 407.81-36.48 407.12-35.45 406.06-34.85 405.01-34.25 404.01-34.25L404.01-34.25Q402.51-34.25 401.54-35.35 400.56-36.45 400.56-38.1L400.56-38.1Q400.56-39.25 401.26-40.28 401.96-41.3 403.01-41.9 404.06-42.5 405.06-42.5L405.06-42.5ZM449.21-1.95L448.21 0.05 438.71 0.05 438.71-16.8Q438.71-19.55 437.86-20.65 437.01-21.75 434.81-21.75L434.81-21.75Q433.16-21.75 431.54-21.15 429.91-20.55 427.71-18.85L427.71-18.85 427.71-3.7 432.21-1.95 431.21 0.05 417.26 0.05 417.26-1.5 421.71-5 421.71-19.15 417.26-21.75 417.26-23.3 425.81-27.5 427.46-21 434.56-26.65Q435.61-27.05 437.31-27.05L437.31-27.05Q440.71-27.05 442.71-24.98 444.71-22.9 444.71-19.35L444.71-19.35 444.71-3.75 449.21-1.95ZM472.51-3.9L467.46 0.1Q466.31 0.5 464.66 0.5L464.66 0.5Q460.51 0.5 458.58-1.68 456.66-3.85 456.66-8.4L456.66-8.4 456.66-23 451.26-23 451.26-25.05 460.76-36.1 462.66-36.1 462.66-25.05 471.66-25.05 471.66-23 462.66-23 462.66-7.8Q462.66-3.75 466.56-3.75L466.56-3.75Q467.61-3.75 468.58-4.2 469.56-4.65 471.01-5.8L471.01-5.8 472.51-3.9ZM491.31-27.05Q494.61-27.05 497.23-25.33 499.86-23.6 501.33-20.65 502.81-17.7 502.81-14.15L502.81-14.15Q502.81-10.3 500.46-6.93 498.11-3.55 494.58-1.53 491.06 0.5 487.76 0.5L487.76 0.5Q484.46 0.5 481.83-1.23 479.21-2.95 477.73-5.9 476.26-8.85 476.26-12.4L476.26-12.4Q476.26-16.25 478.61-19.63 480.96-23 484.48-25.03 488.01-27.05 491.31-27.05L491.31-27.05ZM488.41-22.85Q482.76-22.85 482.76-14.8L482.76-14.8Q482.76-10.05 484.81-6.88 486.86-3.7 490.66-3.7L490.66-3.7Q496.31-3.7 496.31-11.8L496.31-11.8Q496.31-16.5 494.26-19.68 492.21-22.85 488.41-22.85L488.41-22.85ZM537.8-27.05Q539.85-27.05 542.58-26.48 545.3-25.9 546.5-25.2L546.5-25.2 546.5-17.5 544.6-17.5Q542.65-20 540.13-21.43 537.6-22.85 534.9-22.85L534.9-22.85Q532.6-22.85 531.43-20.8 530.25-18.75 530.25-14.8L530.25-14.8Q530.25-10.1 532.3-6.93 534.35-3.75 538.15-3.75L538.15-3.75Q541-3.75 546.25-7.85L546.25-7.85 547.75-5.95 540.05 0.1Q538.05 0.5 535.25 0.5L535.25 0.5Q531.95 0.5 529.33-1.23 526.7-2.95 525.23-5.9 523.75-8.85 523.75-12.4L523.75-12.4Q523.75-16.25 525.93-19.65 528.1-23.05 531.4-25.05 534.7-27.05 537.8-27.05L537.8-27.05ZM569.45-27.05Q572.75-27.05 575.37-25.33 578-23.6 579.47-20.65 580.95-17.7 580.95-14.15L580.95-14.15Q580.95-10.3 578.6-6.93 576.25-3.55 572.72-1.53 569.2 0.5 565.9 0.5L565.9 0.5Q562.6 0.5 559.97-1.23 557.35-2.95 555.87-5.9 554.4-8.85 554.4-12.4L554.4-12.4Q554.4-16.25 556.75-19.63 559.1-23 562.62-25.03 566.15-27.05 569.45-27.05L569.45-27.05ZM566.55-22.85Q560.9-22.85 560.9-14.8L560.9-14.8Q560.9-10.05 562.95-6.88 565-3.7 568.8-3.7L568.8-3.7Q574.45-3.7 574.45-11.8L574.45-11.8Q574.45-16.5 572.4-19.68 570.35-22.85 566.55-22.85L566.55-22.85ZM618.4-2L617.4 0 607.9 0 607.9-3.6 603.25 0.1Q601.65 0.5 599.4 0.5L599.4 0.5Q596.1 0.5 593.47-1.23 590.85-2.95 589.37-5.9 587.9-8.85 587.9-12.4L587.9-12.4Q587.9-16.25 590.25-19.63 592.6-23 596.12-25.03 599.65-27.05 602.95-27.05L602.95-27.05Q605.7-27.05 607.95-25.5L607.95-25.5 607.95-35.8 603.5-38.9 603.5-40.45 612.05-43.65 613.95-43.65 613.95-3.75 618.4-2ZM601.95-3.75Q603.45-3.75 604.82-4.17 606.2-4.6 607.9-5.8L607.9-5.8 607.9-17.2Q607.6-19.7 605.57-21.28 603.55-22.85 600.05-22.85L600.05-22.85Q594.4-22.85 594.4-14.8L594.4-14.8Q594.4-10.1 596.35-6.93 598.3-3.75 601.95-3.75L601.95-3.75ZM648.34-6.9L639.49 0.1Q637.49 0.5 634.69 0.5L634.69 0.5Q631.39 0.5 628.77-1.23 626.14-2.95 624.67-5.9 623.19-8.85 623.19-12.4L623.19-12.4Q623.19-16.25 625.54-19.63 627.89-23 631.42-25.03 634.94-27.05 638.24-27.05L638.24-27.05Q642.99-27.05 645.62-23.3 648.24-19.55 648.24-13.4L648.24-13.4 629.74-13.4Q630.04-9.15 632.07-6.45 634.09-3.75 637.59-3.75L637.59-3.75Q640.84-3.75 646.84-8.8L646.84-8.8 648.34-6.9ZM635.34-22.85Q629.94-22.85 629.69-15.45L629.69-15.45 641.39-15.45Q640.94-18.15 640.47-19.58 639.99-21 638.82-21.93 637.64-22.85 635.34-22.85L635.34-22.85ZM659.34-7.75Q660.84-7.75 661.82-6.65 662.79-5.55 662.79-3.9L662.79-3.9Q662.79-2.75 662.09-1.73 661.39-0.7 660.34-0.1 659.29 0.5 658.29 0.5L658.29 0.5Q656.79 0.5 655.82-0.6 654.84-1.7 654.84-3.35L654.84-3.35Q654.84-4.5 655.54-5.53 656.24-6.55 657.29-7.15 658.34-7.75 659.34-7.75L659.34-7.75Z" opacity="1" transform="matrix(1,0,0,1,0,0)" fill="#000000" class="slogan-text-1" data-fill-palette-color="secondary" id="text-1"></path></svg></g></svg></g></svg></g></svg></g></svg></g><defs></defs></svg><rect width="395.52" height="76.3331972673281" fill="none" stroke="none" visibility="hidden"></rect></g></svg></g></svg>