<?xml version="1.0" encoding="UTF-8"?>
<!-- Generator: visioncortex VTracer 0.6.1 -->
<svg version="1.1" xmlns="http://www.w3.org/2000/svg" width="1280" height="552">
<path d="M0 0 C422.4 0 844.8 0 1280 0 C1280 182.16 1280 364.32 1280 552 C857.6 552 435.2 552 0 552 C0 369.84 0 187.68 0 0 Z " fill="#F9FCFE" transform="translate(0,0)"/>
<path d="M0 0 C2.70502907 0.47401824 5.40989852 0.94891794 8.11468506 1.42431641 C9.2534311 1.62372581 9.2534311 1.62372581 10.41518211 1.8271637 C16.55417387 2.90725842 22.66483392 4.09602265 28.765625 5.375 C29.77292664 5.58560059 30.78022827 5.79620117 31.8180542 6.01318359 C33.90849931 6.45184823 35.99860948 6.89211203 38.08837891 7.33398438 C41.2850343 8.0073802 44.48423664 8.66770055 47.68359375 9.328125 C49.73193953 9.75961663 51.78012302 10.19187954 53.828125 10.625 C55.25152191 10.91576416 55.25152191 10.91576416 56.70367432 11.21240234 C57.58940125 11.4027002 58.47512817 11.59299805 59.38769531 11.7890625 C60.16026672 11.95100098 60.93283813 12.11293945 61.7288208 12.27978516 C64.71639308 13.22717579 66.61403204 13.90396992 69 16 C69.51489896 19.13448874 69.69096864 21.73684996 69.65942383 24.87768555 C69.66990753 25.78520569 69.68039124 26.69272583 69.69119263 27.62774658 C69.72002224 30.63108173 69.71364183 33.63326958 69.70703125 36.63671875 C69.72014148 38.7175288 69.73544362 40.7983261 69.75285339 42.87910461 C69.79279507 48.35855792 69.80289976 53.83767902 69.80688477 59.31726074 C69.81619892 64.90757382 69.85360165 70.49769029 69.88867188 76.08789062 C69.95334112 87.05858449 69.98650464 98.02913222 70 109 C73.96856987 109 75.74241642 107.50550643 79.125 105.4375 C87.08579881 100.73586941 95.34568197 97.21757924 104 94 C104.94601074 93.64228516 104.94601074 93.64228516 105.91113281 93.27734375 C140.47472087 80.48278445 179.72902974 82.24025508 214 95 C216.61979963 96.20664356 219.17716711 97.49063636 221.73144531 98.82983398 C223.7047774 99.84771826 225.66866419 100.73613788 227.72265625 101.57421875 C236.43331467 105.36371854 244.63242639 111.02810518 252 117 C252.98613281 117.79019531 253.97226563 118.58039063 254.98828125 119.39453125 C285.34631499 144.13171259 307.35120792 181.83097253 312 221 C312.1642217 224.06758052 312.21071088 227.13155622 312.23828125 230.203125 C312.246353 231.08039246 312.25442474 231.95765991 312.26274109 232.86151123 C312.27652053 234.71722478 312.2872699 236.57296303 312.29516602 238.42871094 C312.30659048 240.28816393 312.32688746 242.14758668 312.35668945 244.00683594 C312.56751282 257.20272995 311.32955983 269.22299828 308 282 C307.74839111 282.99209473 307.49678223 283.98418945 307.23754883 285.00634766 C306.63020885 287.25627133 305.96812536 289.47075764 305.25 291.6875 C305.0025 292.4602124 304.755 293.2329248 304.5 294.02905273 C301.80433933 302.09703958 298.12036152 309.57476518 294 317 C293.2265625 318.39992188 293.2265625 318.39992188 292.4375 319.828125 C281.57572335 338.60010857 266.7267398 355.48499028 249 368 C248.22011719 368.56332031 247.44023437 369.12664062 246.63671875 369.70703125 C212.36782417 394.16958585 170.1885839 402.06904622 128.69921875 395.61279297 C110.28050454 392.24921918 93.4085255 385.48683989 77.2121582 376.22338867 C74.51846383 374.73369631 71.75320507 373.37660253 69 372 C69 379.59 69 387.18 69 395 C60.15117276 395.02255318 51.30236448 395.04091634 42.45351505 395.05181217 C38.34505715 395.05704046 34.23661986 395.06413713 30.12817383 395.07543945 C26.16653172 395.08627025 22.20490948 395.09227724 18.24325371 395.09487724 C16.72851689 395.09673114 15.21378121 395.1003511 13.69905281 395.10573006 C11.58458187 395.11294307 9.47019406 395.11399083 7.35571289 395.11352539 C5.54702477 395.11685631 5.54702477 395.11685631 3.70179749 395.12025452 C1 395 1 395 0 394 C-0.09794254 391.90979412 -0.1237119 389.81620735 -0.12304783 387.72370815 C-0.12420167 387.05733508 -0.12535552 386.390962 -0.12654433 385.7043958 C-0.12921745 383.44356681 -0.12468317 381.18280728 -0.12025452 378.92198181 C-0.12069008 377.29594724 -0.1215647 375.66991274 -0.12284368 374.04387861 C-0.12509163 369.55390901 -0.12106328 365.06396302 -0.11606562 360.57399642 C-0.11176558 355.74029467 -0.11320723 350.90659436 -0.1139679 346.07289124 C-0.11449342 337.6909497 -0.1113437 329.30901592 -0.10573006 320.92707634 C-0.09761884 308.80805048 -0.09500023 296.6890284 -0.09374207 284.57000012 C-0.09155095 264.90986449 -0.08488925 245.24973299 -0.07543945 225.58959961 C-0.06626687 206.48640972 -0.05918529 187.38322095 -0.05493164 168.2800293 C-0.05466892 167.10341576 -0.05440619 165.92680223 -0.05413551 164.71453374 C-0.05283051 158.81208031 -0.0515668 152.90962687 -0.05032361 147.00717342 C-0.03994914 98.00477942 -0.02232921 49.00238991 0 0 Z " fill="#020002" transform="translate(0,1)"/>
<path d="M0 0 C0.66 0.33 1.32 0.66 2 1 C2 103.3 2 205.6 2 311 C-20.44 311 -42.88 311 -66 311 C-67.58403524 309.41596476 -67.21974935 307.7228362 -67.31640625 305.52734375 C-67.37924805 304.17866211 -67.37924805 304.17866211 -67.44335938 302.80273438 C-67.48267578 301.85720703 -67.52199219 300.91167969 -67.5625 299.9375 C-67.60568359 298.98810547 -67.64886719 298.03871094 -67.69335938 297.06054688 C-67.79979276 294.70718647 -67.90181008 292.35371646 -68 290 C-71.3291874 290.76548127 -73.84054842 291.91761153 -76.8125 293.625 C-114.97170954 314.66794141 -159.38149023 319.11057068 -201.375 307.0625 C-236.497213 296.22799878 -266.6917603 272.28295814 -287 242 C-287.56460938 241.15953125 -288.12921875 240.3190625 -288.7109375 239.453125 C-308.27952741 208.59894619 -315.62254927 167.7239229 -309 132 C-308.87641113 131.31550781 -308.75282227 130.63101563 -308.62548828 129.92578125 C-303.29722581 101.1467054 -290.34780717 72.47967978 -269.57958984 51.59423828 C-267.95570932 49.95529859 -266.36168949 48.29082481 -264.76953125 46.62109375 C-258.03295897 39.62747733 -251.05235083 33.48356703 -243 28 C-241.5459375 27.00419922 -241.5459375 27.00419922 -240.0625 25.98828125 C-204.69810812 3.02849111 -161.20519976 -4.40413927 -120.1171875 4.26367188 C-104.92859722 7.85145291 -90.63761091 13.46638455 -77 21 C-76.01902344 21.53238281 -75.03804687 22.06476563 -74.02734375 22.61328125 C-72.00693677 23.72185077 -70.00091351 24.85662085 -68 26 C-67.67 23.03 -67.34 20.06 -67 17 C-66.20486496 16.80177139 -65.40972992 16.60354279 -64.59049988 16.39930725 C-57.10062087 14.5318448 -49.61102494 12.66325313 -42.12174511 10.79338932 C-38.27134173 9.83209365 -34.42083003 8.87123645 -30.57006836 7.91137695 C-26.85454795 6.98521128 -23.1393153 6.05789957 -19.42428017 5.12978935 C-18.00620037 4.77573166 -16.58801701 4.42208848 -15.16972923 4.06886482 C-13.18473658 3.57442882 -11.20011576 3.07852627 -9.21557617 2.58227539 C-8.08528488 2.30025772 -6.95499359 2.01824005 -5.79045105 1.72767639 C-3.8413994 1.21941488 -1.91086863 0.63695621 0 0 Z " fill="#020002" transform="translate(1066,85)"/>
<path d="M0 0 C0.66992981 -0.00175232 1.33985962 -0.00350464 2.03009033 -0.00531006 C4.25519363 -0.00972838 6.48021809 -0.00679034 8.70532227 -0.00341797 C10.24609899 -0.00409109 11.78687562 -0.00506119 13.32765198 -0.00631714 C16.56170662 -0.00779415 19.79573371 -0.00563976 23.02978516 -0.00097656 C27.1806556 0.00471597 31.33146132 0.00144477 35.48232937 -0.00454903 C38.66584259 -0.00815862 41.84934041 -0.00701413 45.03285408 -0.00442123 C46.56350779 -0.00375282 48.09416289 -0.00457741 49.62481499 -0.00690079 C51.76293527 -0.00943331 53.9009501 -0.00557802 56.0390625 0 C57.86654274 0.00119339 57.86654274 0.00119339 59.73094177 0.00241089 C62.58422852 0.12939453 62.58422852 0.12939453 64.58422852 1.12939453 C62.54354586 12.35314914 58.13103027 22.93440418 54.20141602 33.60205078 C53.30798094 36.0277562 52.4147616 38.45354109 51.52172852 40.87939453 C51.28803558 41.5139859 51.05434265 42.14857727 50.81356812 42.80239868 C46.0810137 55.66519265 41.52968779 68.58842264 37.00205994 81.52449036 C36.72237869 82.3235228 36.44269745 83.12255524 36.15454102 83.94580078 C35.72819115 85.1639875 35.72819115 85.1639875 35.29322815 86.40678406 C31.66656326 96.76112773 27.99957817 107.10119653 24.33422852 117.44189453 C23.61075365 119.48339673 22.88728363 121.52490065 22.16381836 123.56640625 C20.7006179 127.69505025 19.23720045 131.82361727 17.77368164 135.95214844 C15.620979 142.02519581 13.46957095 148.09870114 11.31860352 154.17236328 C10.96819504 155.16177917 10.61778656 156.15119507 10.25675964 157.17059326 C8.50343427 162.1214499 6.75035044 167.07239195 4.99755859 172.0234375 C1.65572067 181.46218439 -1.68848112 190.90007766 -5.0395813 200.33554077 C-6.63532878 204.8289648 -8.22994264 209.32279075 -9.82446289 213.81665039 C-10.59033156 215.97407943 -11.35676543 218.13130792 -12.1237793 220.28833008 C-13.18214354 223.26480528 -14.23861983 226.24194416 -15.29467773 229.21923828 C-15.61251724 230.1115062 -15.93035675 231.00377411 -16.25782776 231.92308044 C-17.74710992 235.4486345 -17.74710992 235.4486345 -18.41577148 239.12939453 C22.66922852 239.62439453 22.66922852 239.62439453 64.58422852 240.12939453 C64.58422852 214.05939453 64.58422852 187.98939453 64.58422852 161.12939453 C67.42875872 159.70712943 69.84145745 159.99425375 73.02172852 159.98413086 C73.68205078 159.98077225 74.34237305 159.97741364 75.02270508 159.97395325 C77.20989858 159.96443819 79.3970156 159.9625 81.58422852 159.96142578 C83.10115592 159.95821406 84.61808302 159.95485005 86.13500977 159.95133972 C89.31600666 159.9453474 92.49697637 159.94349997 95.67797852 159.9440918 C99.76048821 159.94419353 103.84282444 159.93052997 107.92529297 159.91331959 C111.05819505 159.90222027 114.19105488 159.90017193 117.32397461 159.90070152 C118.82951456 159.89951871 120.33505551 159.89508017 121.84057617 159.88736916 C123.94275197 159.87760886 126.04454704 159.88043109 128.14672852 159.88647461 C129.94303711 159.88433708 129.94303711 159.88433708 131.77563477 159.88215637 C134.58422852 160.12939453 134.58422852 160.12939453 136.58422852 162.12939453 C136.80138452 164.59650096 136.89559111 166.95489236 136.90307617 169.42480469 C136.9131218 170.17612167 136.92316742 170.92743866 136.93351746 171.70152283 C136.96446402 174.19049294 136.98141616 176.67935496 136.99829102 179.16845703 C137.01699347 180.89196714 137.03656618 182.61546801 137.05697632 184.33895874 C137.10840117 188.87958335 137.1479713 193.42023767 137.18511963 197.96099854 C137.22509456 202.59272679 137.27621651 207.22433031 137.32641602 211.85595703 C137.42329778 220.94701538 137.50766319 230.03814398 137.58422852 239.12939453 C138.28135956 239.13748138 138.9784906 239.14556824 139.69674683 239.15390015 C146.25968154 239.2317717 152.8224157 239.31903942 159.38508415 239.41692162 C162.75920356 239.46691351 166.13329121 239.5132429 169.50756836 239.55126953 C173.38487481 239.59676781 177.26181904 239.65478732 181.13891602 239.71533203 C182.35352509 239.72688324 183.56813416 239.73843445 184.81954956 239.75033569 C185.94056061 239.77020538 187.06157166 239.79007507 188.21655273 239.81054688 C189.70214188 239.83053238 189.70214188 239.83053238 191.21774292 239.85092163 C193.58422852 240.12939453 193.58422852 240.12939453 195.58422852 242.12939453 C195.82473755 244.91348267 195.82473755 244.91348267 195.8112793 248.50683594 C195.81157135 249.16061722 195.8118634 249.8143985 195.81216431 250.48799133 C195.81076916 252.6524475 195.79519971 254.81656089 195.77954102 256.98095703 C195.77581153 258.48025321 195.77296425 259.97955183 195.77096558 261.47885132 C195.763324 265.42776196 195.74367111 269.37652583 195.72155762 273.32537842 C195.69751633 278.06186896 195.68832069 282.79840855 195.676651 287.53494263 C195.6572469 294.7331954 195.61892826 301.931126 195.58422852 309.12939453 C176.11422852 309.45939453 156.64422852 309.78939453 136.58422852 310.12939453 C136.58422852 323.98939453 136.58422852 337.84939453 136.58422852 352.12939453 C119.1948314 352.20961215 119.1948314 352.20961215 111.79907227 352.22705078 C106.7467836 352.23901999 101.69456723 352.25320006 96.64233398 352.28027344 C92.57045574 352.30195756 88.49865499 352.31395376 84.42672348 352.31914902 C82.87093765 352.32285277 81.31515619 352.33008499 79.75940323 352.34085464 C77.58519477 352.35531091 75.4113091 352.35737497 73.23706055 352.35644531 C71.99795929 352.36088654 70.75885803 352.36532776 69.48220825 352.36990356 C66.58422852 352.12939453 66.58422852 352.12939453 64.58422852 350.12939453 C64.35046383 347.20422784 64.23467197 344.36668875 64.20532227 341.43798828 C64.17983055 340.14732201 64.17983055 340.14732201 64.15382385 338.83058167 C64.10058776 336.07609424 64.06034508 333.32162275 64.02172852 330.56689453 C63.97786351 327.80867283 63.93121448 325.05057082 63.87892151 322.29249573 C63.84686007 320.57427414 63.82000295 318.85594651 63.7986908 317.13755798 C64.10089118 313.32342844 64.10089118 313.32342844 62.58422852 310.12939453 C60.47313374 310.02242527 58.35841275 309.98692957 56.24462891 309.97790527 C55.57477746 309.97367286 54.90492601 309.96944045 54.21477604 309.96507978 C51.95381017 309.95198767 49.69287961 309.94601397 47.43188477 309.93994141 C45.81761456 309.93200428 44.20334651 309.92361676 42.58908081 309.91481018 C39.10503766 309.89671562 35.62099939 309.88171356 32.13693237 309.86903381 C26.6337376 309.84886928 21.13059655 309.82120982 15.62744141 309.7923584 C3.94639553 309.73218545 -7.73468243 309.68037614 -19.41577148 309.62939453 C-32.02418677 309.57436565 -44.63258582 309.51794757 -57.24094868 309.45184565 C-62.71751715 309.42342103 -68.19407913 309.39985225 -73.67068481 309.37992096 C-77.07084824 309.36657414 -80.47098181 309.34915962 -83.87112045 309.33061028 C-85.45422489 309.32282639 -87.03733884 309.31676909 -88.6204567 309.31251717 C-90.77241316 309.3065093 -92.92425203 309.29448055 -95.07617188 309.28088379 C-96.28334366 309.27573006 -97.49051544 309.27057632 -98.73426819 309.26526642 C-101.41577148 309.12939453 -101.41577148 309.12939453 -102.41577148 308.12939453 C-105.13510326 275.66839519 -107.12863994 239.77403135 -91.21606445 210.58349609 C-88.34148624 205.06823537 -86.17560197 199.30022549 -83.95007324 193.49993896 C-82.84883942 190.64609886 -81.70351409 187.81038725 -80.56030273 184.97314453 C-77.95608129 178.47993482 -75.35727481 171.98456949 -72.75952148 165.48876953 C-69.58190619 157.54303912 -66.40250663 149.59802755 -63.22050476 141.65405273 C-61.32536929 136.92256647 -59.43096604 132.19078719 -57.53662109 127.45898438 C-56.57240362 125.05098632 -55.60788003 122.64311082 -54.64306641 120.23535156 C-53.2162137 116.67432156 -51.79049919 113.11283763 -50.36499023 109.55126953 C-49.94094406 108.49373474 -49.51689789 107.43619995 -49.08000183 106.34661865 C-46.51165537 99.92599036 -44.00382274 93.48446195 -41.5292511 87.02713013 C-40.25003788 83.69808699 -38.94278843 80.38231144 -37.61889648 77.07080078 C-37.13952637 75.87148926 -36.66015625 74.67217773 -36.16625977 73.43652344 C-35.66613841 72.18829721 -35.16597477 70.94008793 -34.66577148 69.69189453 C-34.40664978 69.04420105 -34.14752808 68.39650757 -33.8805542 67.72918701 C-30.47622119 59.22004845 -27.03156958 50.7284827 -23.54077148 42.25439453 C-20.74829899 35.47205903 -18.06613323 28.66347277 -15.52294922 21.78393555 C-13.77596373 17.06233653 -11.96386578 12.36991231 -10.10327148 7.69189453 C-9.84843994 7.04615479 -9.5936084 6.40041504 -9.33105469 5.73510742 C-6.9763248 -0.14890735 -6.35538742 0.00415294 0 0 Z " fill="#020002" transform="translate(556.415771484375,84.87060546875)"/>
<path d="M0 0 C0 130.35 0 260.7 0 395 C-22.77 395 -45.54 395 -69 395 C-70 394 -70 394 -70.1241985 391.44564241 C-70.12381878 390.29471009 -70.12343906 389.14377777 -70.12304783 387.95796871 C-70.12420167 387.31692124 -70.12535552 386.67587377 -70.12654433 386.01540062 C-70.12921723 383.84072172 -70.12468335 381.66611505 -70.12025452 379.49143982 C-70.12069008 377.92727725 -70.12156472 376.36311475 -70.12284368 374.79895264 C-70.12509154 370.48000629 -70.12106341 366.16108449 -70.11606562 361.84214127 C-70.11176546 357.19249032 -70.11320723 352.54284086 -70.1139679 347.89318848 C-70.11449341 339.83046068 -70.11134378 331.76774095 -70.10573006 323.70501518 C-70.09761873 312.04752566 -70.09500021 300.39004005 -70.09374207 288.73254801 C-70.09155097 269.8211268 -70.08488932 250.90970989 -70.07543945 231.99829102 C-70.06626683 213.62264019 -70.05918527 195.24699054 -70.05493164 176.87133789 C-70.05466892 175.73952929 -70.05440619 174.60772069 -70.05413551 173.44161486 C-70.05283051 167.7639225 -70.0515668 162.08623012 -70.05032361 156.40853775 C-70.03994919 109.27235552 -70.02232931 62.13617798 -70 15 C-62.56608902 13.34517794 -55.13198541 11.69122331 -47.69775391 10.0378418 C-45.17427307 9.47651316 -42.65083468 8.91499362 -40.12744141 8.35327148 C-2.60083333 -0 -2.60083333 -0 0 0 Z " fill="#030204" transform="translate(1280,0)"/>
<path d="M0 0 C0 130.68 0 261.36 0 396 C-22.44 396 -44.88 396 -68 396 C-69 395 -69 395 -69.1241985 392.45205444 C-69.12381878 391.30415988 -69.12343906 390.15626532 -69.12304783 388.97358608 C-69.12503888 387.65487151 -69.12702993 386.33615693 -69.12908131 384.97748131 C-69.12622771 383.49478859 -69.1232821 382.01209605 -69.12025452 380.52940369 C-69.12069008 378.96936592 -69.12156472 377.40932821 -69.12284368 375.84929091 C-69.12509154 371.5417461 -69.12106341 367.23422592 -69.11606562 362.92668426 C-69.11176545 358.28930336 -69.11320724 353.65192396 -69.1139679 349.01454163 C-69.11449341 340.97309475 -69.11134378 332.93165595 -69.10573006 324.89021111 C-69.09761872 313.26349067 -69.09500021 301.63677416 -69.09374207 290.0100512 C-69.09155097 271.14854428 -69.08488932 252.28704168 -69.07543945 233.42553711 C-69.06626683 215.09838889 -69.05918526 196.77124184 -69.05493164 178.4440918 C-69.05466892 177.31527019 -69.05440619 176.18644859 -69.05413551 175.02342027 C-69.05283051 169.36071197 -69.0515668 163.69800367 -69.05032361 158.03529537 C-69.03994919 111.02352726 -69.02232931 64.01176385 -69 17 C-65.6350846 16.03400572 -62.26968795 15.06969844 -58.90420532 14.10568237 C-57.95679254 13.83367854 -57.00937975 13.56167471 -56.03325748 13.28142834 C-49.45452447 11.39820098 -42.86250056 9.61707285 -36.2109375 8.0078125 C-35.2489444 7.77214569 -34.28695129 7.53647888 -33.29580688 7.29367065 C-31.31585383 6.80967674 -29.33542052 6.32764286 -27.35449219 5.84765625 C-24.31300856 5.10996438 -21.27364776 4.36393043 -18.234375 3.6171875 C-16.28918065 3.1427445 -14.34387258 2.66876744 -12.3984375 2.1953125 C-11.49547943 1.97352325 -10.59252136 1.75173401 -9.66220093 1.52322388 C-8.82927521 1.32236176 -7.99634949 1.12149963 -7.13818359 0.91455078 C-6.40876556 0.73723419 -5.67934753 0.5599176 -4.92782593 0.37722778 C-3 0 -3 0 0 0 Z " fill="#020002" transform="translate(1174,0)"/>
<path d="M0 0 C6.24116015 5.64156877 11.38417502 11.60930183 15.93994141 18.71508789 C16.54322266 19.61356445 17.14650391 20.51204102 17.76806641 21.43774414 C29.70418279 40.30199764 33.30054026 64.54044647 29.22119141 86.40258789 C28.30680606 89.94214408 27.23924876 93.29964478 25.93994141 96.71508789 C25.55451172 97.78629883 25.16908203 98.85750977 24.77197266 99.96118164 C16.87420293 120.43404103 -0.20545981 138.34452617 -20.07226562 147.65844727 C-41.80657712 157.01964822 -66.86851986 157.8804997 -89.04077148 149.29931641 C-101.6430048 144.14723136 -111.42352353 137.23924353 -121.06005859 127.71508789 C-121.79998047 127.04735352 -122.53990234 126.37961914 -123.30224609 125.69165039 C-136.11212527 113.87864898 -144.00406074 95.04161558 -145.27929688 77.74072266 C-146.19263465 53.26594535 -142.08259542 30.97715402 -126.06005859 11.71508789 C-125.32142578 10.80243164 -124.58279297 9.88977539 -123.82177734 8.94946289 C-108.69567271 -8.77605416 -86.43121347 -19.17962398 -63.32910156 -21.1550293 C-39.78652741 -22.50263522 -17.79025611 -15.56583563 0 0 Z " fill="#FAFDFF" transform="translate(214.06005859375,175.284912109375)"/>
<path d="M0 0 C0.94939453 0.72123047 0.94939453 0.72123047 1.91796875 1.45703125 C7.46303422 5.86009239 11.66731223 11.44464087 16 17 C16.474375 17.57363281 16.94875 18.14726562 17.4375 18.73828125 C31.17998871 36.23283103 34.94023149 60.628069 32.78173828 82.17919922 C29.71058474 104.33576387 17.64019753 125.42127452 -0.1875 139 C-2.11162932 140.35255698 -4.04774218 141.68836993 -6 143 C-6.67417969 143.47824219 -7.34835937 143.95648438 -8.04296875 144.44921875 C-27.04521428 157.292954 -51.1801016 159.59228066 -73.37890625 155.87109375 C-95.77003188 150.48466331 -116.71249479 136.82263162 -129.13769531 117.20361328 C-142.24306133 95.59761555 -145.50511885 72.47049057 -140 48 C-136.67237571 35.10545588 -130.73338906 23.05718698 -122 13 C-121.35675781 12.20207031 -120.71351563 11.40414062 -120.05078125 10.58203125 C-105.79901283 -6.40944866 -83.95480146 -16.72331128 -62.03125 -18.81640625 C-39.52402977 -20.0967242 -17.69434544 -14.27710688 0 0 Z " fill="#FAFDFF" transform="translate(966,173)"/>
<path d="M0 0 C1 1 1 1 1.1241985 3.10551554 C1.12381878 4.04380448 1.12343906 4.98209341 1.12304783 5.94881535 C1.12503888 7.02717563 1.12702993 8.10553591 1.12908131 9.21657377 C1.12616847 10.41596396 1.12325563 11.61535414 1.12025452 12.85108948 C1.12110894 14.11376158 1.12196337 15.37643369 1.12284368 16.67736858 C1.12509102 20.19820686 1.12106413 23.71901501 1.11606562 27.23984945 C1.1117647 31.03059668 1.11320729 34.82134208 1.1139679 38.61209106 C1.11449336 45.18515491 1.11134423 51.75820886 1.10573006 58.33127022 C1.09761808 67.83492356 1.09500015 77.3385721 1.09374207 86.84222852 C1.09155107 102.25964921 1.0848897 117.67706461 1.07543945 133.09448242 C1.06626657 148.0749509 1.05918513 163.05541795 1.05493164 178.03588867 C1.05466892 178.95860758 1.05440619 179.88132649 1.05413551 180.83200658 C1.05283051 185.46081396 1.05156679 190.08962134 1.05032361 194.71842873 C1.03994951 233.14562285 1.0223299 271.57281108 1 310 C-7.83153988 310.04628239 -16.6630382 310.08184825 -25.49467278 310.10362434 C-29.59528757 310.11407426 -33.69581958 310.12825537 -37.79638672 310.15087891 C-41.75155581 310.1725644 -45.70664511 310.18455952 -49.66186905 310.18975449 C-51.17299786 310.19345799 -52.68412217 310.20068975 -54.19521713 310.21146011 C-56.30716232 310.22591823 -58.41877524 310.22798037 -60.53076172 310.22705078 C-61.73433319 310.231492 -62.93790466 310.23593323 -64.177948 310.24050903 C-67 310 -67 310 -69 308 C-69.24954766 305.89441586 -69.24954766 305.89441586 -69.24888897 303.23045349 C-69.25348777 302.21752007 -69.25808656 301.20458666 -69.26282471 300.16095829 C-69.25768115 299.03977321 -69.25253759 297.91858812 -69.24723816 296.76342773 C-69.24965257 295.57889983 -69.25206699 294.39437193 -69.25455457 293.17394924 C-69.25923101 289.87578888 -69.25488287 286.57785924 -69.24679029 283.27971983 C-69.24023014 279.72685054 -69.24515808 276.17399528 -69.24867249 272.62112427 C-69.2537224 265.65700926 -69.24806294 258.69294161 -69.23882218 251.72883248 C-69.22845528 243.62575712 -69.22850792 235.52269209 -69.22899476 227.41961133 C-69.22949578 212.96560326 -69.22032323 198.51161729 -69.20581055 184.05761719 C-69.19172234 170.01920163 -69.18463974 155.98080553 -69.18530273 141.94238281 C-69.18534269 141.07781035 -69.18538265 140.21323788 -69.18542381 139.32246625 C-69.18546417 138.45941645 -69.18550452 137.59636664 -69.1855461 136.70716381 C-69.18623535 120.74418336 -69.18034929 104.7812112 -69.17139288 88.81823343 C-69.16837197 83.16453776 -69.16731278 77.51084361 -69.16686058 71.85714722 C-69.16617955 64.97100381 -69.16173033 58.08487438 -69.15252777 51.19873691 C-69.14789991 47.68260769 -69.1448679 44.16649639 -69.14612198 40.65036392 C-69.14741318 36.84575255 -69.14098955 33.04117745 -69.13371277 29.23657227 C-69.13603567 27.55479464 -69.13603567 27.55479464 -69.1384055 25.83904171 C-69.13518106 24.82610829 -69.13195661 23.81317488 -69.12863445 22.76954651 C-69.12793003 21.89043893 -69.1272256 21.01133135 -69.12649983 20.10558414 C-69 18 -69 18 -68 16 C-65.06896011 15.09371551 -62.17480255 14.30596303 -59.19921875 13.57421875 C-58.29363724 13.34475052 -57.38805573 13.11528229 -56.45503235 12.87886047 C-53.53439278 12.14073387 -50.61105253 11.41399353 -47.6875 10.6875 C-45.78952619 10.20972804 -43.89173743 9.73122027 -41.99414062 9.25195312 C-38.21311646 8.29826447 -34.4302986 7.35221255 -30.64599609 6.41162109 C-26.85771533 5.468751 -23.0749887 4.50694131 -19.29541016 3.52978516 C-18.38620316 3.29669144 -17.47699615 3.06359772 -16.54023743 2.82344055 C-14.8244902 2.38316613 -13.10987742 1.93843745 -11.39665222 1.4884491 C-7.54510388 0.5058899 -4.01058116 -0.39281151 0 0 Z " fill="#020002" transform="translate(417,86)"/>
<path d="M0 0 C6.57523784 6.27916709 10.02676901 13.67247602 10.43359375 22.71484375 C10.450692 24.78899244 10.45168016 26.86332931 10.4375 28.9375 C10.4674707 30.48727539 10.4674707 30.48727539 10.49804688 32.06835938 C10.49271434 40.48843242 8.44632256 46.2585655 3.875 53.25 C-1.61673552 58.50296441 -7.36160663 61.26478325 -15 61.6875 C-23.38969091 61.28901661 -29.25755608 57.1169812 -34.9375 51.1875 C-42.16403205 42.06911639 -42.07719218 31.17943784 -41 20 C-39.45163111 11.79072344 -35.42937112 5.33383284 -29 0 C-19.59758032 -5.6020858 -9.38100896 -5.78366338 0 0 Z " fill="#40CAD1" transform="translate(840,491)"/>
<path d="M0 0 C1.00417969 -0.02449219 2.00835937 -0.04898437 3.04296875 -0.07421875 C10.78669968 -0.10427204 18.12735831 0.96504272 24.12109375 6.24267578 C31.4535931 13.85075626 33.67159692 22.02198576 33.5 32.375 C33.51546875 33.30828125 33.5309375 34.2415625 33.546875 35.203125 C33.5026422 43.12079608 31.59503688 50.51029673 25.8125 56.25 C25.30332031 56.78367187 24.79414063 57.31734375 24.26953125 57.8671875 C16.77078675 62.84914168 8.73212161 62.78689333 0 62.625 C-1.14339844 62.61984375 -2.28679687 62.6146875 -3.46484375 62.609375 C-11.84534439 62.52965561 -11.84534439 62.52965561 -13 61.375 C-13.10428875 59.54472828 -13.13854374 57.71042545 -13.14526367 55.87719727 C-13.15164352 54.70250381 -13.15802338 53.52781036 -13.16459656 52.31752014 C-13.16570938 51.03840256 -13.1668222 49.75928497 -13.16796875 48.44140625 C-13.17129715 47.13799789 -13.17462555 45.83458954 -13.17805481 44.49168396 C-13.184052 41.72841565 -13.18589412 38.96517865 -13.18530273 36.2019043 C-13.18520109 32.65631527 -13.19885231 29.11092643 -13.21607494 25.56538486 C-13.22985013 22.19072201 -13.22928323 18.81609691 -13.23046875 15.44140625 C-13.23765427 14.1643129 -13.24483978 12.88721954 -13.25224304 11.57142639 C-13.24916641 10.39358078 -13.24608978 9.21573517 -13.24291992 8.00219727 C-13.24434494 6.96152603 -13.24576996 5.9208548 -13.24723816 4.84864807 C-12.57911538 -1.83600216 -5.0993853 0.00635042 0 0 Z " fill="#40CAD1" transform="translate(425,487.625)"/>
<path d="M0 0 C1.25941406 -0.02449219 2.51882812 -0.04898437 3.81640625 -0.07421875 C12.15795395 -0.10047756 18.21049135 0.32902575 24.43359375 6.375 C25.11615234 7.365 25.11615234 7.365 25.8125 8.375 C26.28558594 9.035 26.75867188 9.695 27.24609375 10.375 C30.09998215 15.43102374 29.95822833 20.94488197 28.625 26.5 C26.50932004 31.36606391 23.09480052 34.68632752 19.375 38.375 C19.73851562 39.03097168 20.10203125 39.68694336 20.4765625 40.36279297 C22.11372925 43.32281144 23.74443594 46.28633965 25.375 49.25 C25.94734375 50.28253906 26.5196875 51.31507813 27.109375 52.37890625 C27.65078125 53.36503906 28.1921875 54.35117187 28.75 55.3671875 C29.25273437 56.27839355 29.75546875 57.18959961 30.2734375 58.12841797 C31.375 60.375 31.375 60.375 31.375 62.375 C29.60492286 62.45614106 27.83377902 62.51425505 26.0625 62.5625 C25.07636719 62.59730469 24.09023437 62.63210938 23.07421875 62.66796875 C19.85705258 62.31878284 19.412169 61.78092068 17.375 59.375 C16.49824078 57.94480247 15.67471932 56.48117902 14.89453125 54.99609375 C14.45302734 54.15755859 14.01152344 53.31902344 13.55664062 52.45507812 C13.10482422 51.58302734 12.65300781 50.71097656 12.1875 49.8125 C11.49237305 48.49862305 11.49237305 48.49862305 10.78320312 47.15820312 C7.375 40.63794413 7.375 40.63794413 7.375 38.375 C5.72869672 38.51542877 4.08295821 38.66249329 2.4375 38.8125 C1.52097656 38.89371094 0.60445312 38.97492187 -0.33984375 39.05859375 C-2.58659732 39.13544976 -2.58659732 39.13544976 -3.625 40.375 C-3.78214654 42.00756758 -3.87585414 43.64635338 -3.94140625 45.28515625 C-3.98330078 46.27451172 -4.02519531 47.26386719 -4.06835938 48.28320312 C-4.10767578 49.32412109 -4.14699219 50.36503906 -4.1875 51.4375 C-4.23068359 52.48228516 -4.27386719 53.52707031 -4.31835938 54.60351562 C-4.42481225 57.19386884 -4.5268276 59.78432186 -4.625 62.375 C-6.27074566 62.40188151 -7.91661413 62.42134123 -9.5625 62.4375 C-10.47902344 62.44910156 -11.39554687 62.46070313 -12.33984375 62.47265625 C-14.625 62.375 -14.625 62.375 -15.625 61.375 C-15.72928875 59.54472828 -15.76354374 57.71042545 -15.77026367 55.87719727 C-15.77664352 54.70250381 -15.78302338 53.52781036 -15.78959656 52.31752014 C-15.79070938 51.03840256 -15.7918222 49.75928497 -15.79296875 48.44140625 C-15.79629715 47.13799789 -15.79962555 45.83458954 -15.80305481 44.49168396 C-15.809052 41.72841565 -15.81089412 38.96517865 -15.81030273 36.2019043 C-15.81020109 32.65631527 -15.82385231 29.11092643 -15.84107494 25.56538486 C-15.85485013 22.19072201 -15.85428323 18.81609691 -15.85546875 15.44140625 C-15.86265427 14.1643129 -15.86983978 12.88721954 -15.87724304 11.57142639 C-15.87416641 10.39358078 -15.87108978 9.21573517 -15.86791992 8.00219727 C-15.86934494 6.96152603 -15.87076996 5.9208548 -15.87223816 4.84864807 C-15.15236474 -2.35377365 -5.38183083 0.00540888 0 0 Z " fill="#40CAD1" transform="translate(133.625,487.625)"/>
<path d="M0 0 C2.96796532 0.07771406 4.29763158 0.25310052 6.52978516 2.25244141 C8.21990003 4.58967475 9.66152068 6.97793784 11.08203125 9.48828125 C11.62255127 10.37942627 12.16307129 11.27057129 12.7199707 12.1887207 C13.85236605 14.0573127 14.97188575 15.93376173 16.07910156 17.81738281 C18.78264274 22.38888197 21.6234707 26.8717265 24.45703125 31.36328125 C24.96210205 32.18223877 25.46717285 33.00119629 25.98754883 33.8449707 C26.45572021 34.59738037 26.9238916 35.34979004 27.40625 36.125 C27.81576904 36.78846436 28.22528809 37.45192871 28.6472168 38.13549805 C29.70490005 39.83493343 29.70490005 39.83493343 31.76953125 40.67578125 C32.09953125 41.00578125 32.42953125 41.33578125 32.76953125 41.67578125 C32.7538208 39.91935303 32.7538208 39.91935303 32.73779297 38.12744141 C32.70165628 33.7926742 32.67865392 29.45792036 32.65966797 25.12304688 C32.64959591 23.24509443 32.63593763 21.36715772 32.61865234 19.48925781 C32.59445672 16.79358035 32.58306042 14.09810979 32.57421875 11.40234375 C32.56389618 10.55958893 32.55357361 9.71683411 32.54293823 8.84854126 C32.54253981 6.78956878 32.64695537 4.7311019 32.76953125 2.67578125 C34.76953125 0.67578125 34.76953125 0.67578125 36.6796875 0.4453125 C42.65842014 0.56467014 42.65842014 0.56467014 43.76953125 1.67578125 C43.86344421 3.57821887 43.88696783 5.48416584 43.88305664 7.38891602 C43.88298111 8.61010635 43.88290558 9.83129669 43.88282776 11.0894928 C43.87772036 12.43205811 43.87250436 13.774623 43.8671875 15.1171875 C43.86532324 16.48339283 43.86389938 17.84959882 43.86289978 19.21580505 C43.85907519 22.8177982 43.84924542 26.41975125 43.8381958 30.02172852 C43.82798041 33.6948187 43.82340189 37.36791534 43.81835938 41.04101562 C43.80762309 48.25262248 43.79054739 55.46419625 43.76953125 62.67578125 C41.98577872 62.71595971 40.20176857 62.74482919 38.41772461 62.76879883 C36.92758095 62.79469841 36.92758095 62.79469841 35.40733337 62.82112122 C32.76953125 62.67578125 32.76953125 62.67578125 30.3984375 61.1875 C29.86089844 60.35863281 29.32335937 59.52976562 28.76953125 58.67578125 C28.39296387 58.10037598 28.01639648 57.5249707 27.62841797 56.93212891 C26.27319349 54.81038655 24.98730875 52.65602121 23.70703125 50.48828125 C19.35930931 43.22370491 14.85231581 36.09419149 10.12280273 29.0715332 C6.76953125 24.00080728 6.76953125 24.00080728 6.76953125 20.67578125 C6.10953125 20.67578125 5.44953125 20.67578125 4.76953125 20.67578125 C4.76953125 34.53578125 4.76953125 48.39578125 4.76953125 62.67578125 C1.46953125 62.67578125 -1.83046875 62.67578125 -5.23046875 62.67578125 C-6.97100007 60.93524993 -6.36705305 58.54575122 -6.37573242 56.17797852 C-6.38211227 55.00328506 -6.38849213 53.82859161 -6.39506531 52.61830139 C-6.39617813 51.33918381 -6.39729095 50.06006622 -6.3984375 48.7421875 C-6.4017659 47.43877914 -6.4050943 46.13537079 -6.40852356 44.79246521 C-6.41452075 42.0291969 -6.41636287 39.2659599 -6.41577148 36.50268555 C-6.41566984 32.95709652 -6.42932106 29.41170768 -6.44654369 25.86616611 C-6.46031888 22.49150326 -6.45975198 19.11687816 -6.4609375 15.7421875 C-6.46812302 14.46509415 -6.47530853 13.18800079 -6.48271179 11.87220764 C-6.47963516 10.69436203 -6.47655853 9.51651642 -6.47338867 8.30297852 C-6.47481369 7.26230728 -6.47623871 6.22163605 -6.47770691 5.14942932 C-6.05206761 0.89085603 -3.86726331 0.28840468 0 0 Z " fill="#40CAD1" transform="translate(180.23046875,487.32421875)"/>
<path d="M0 0 C2.98896872 0.10454263 4.34184834 0.32213485 6.57421875 2.3515625 C8.50013726 5.06556873 10.15152843 7.86497911 11.8125 10.75 C12.68571025 12.18107576 13.56365134 13.60927141 14.4453125 15.03515625 C16.36151249 18.13967689 18.2655622 21.25096737 20.15625 24.37109375 C22.360643 28.0066151 24.56725121 31.63952578 26.8125 35.25 C27.328125 36.0853125 27.84375 36.920625 28.375 37.78125 C29.82881446 40.00995731 29.82881446 40.00995731 32.8125 41.75 C32.79678955 39.99357178 32.79678955 39.99357178 32.78076172 38.20166016 C32.74462503 33.86689295 32.72162267 29.53213911 32.70263672 25.19726562 C32.69256466 23.31931318 32.67890638 21.44137647 32.66162109 19.56347656 C32.63742547 16.8677991 32.62602917 14.17232854 32.6171875 11.4765625 C32.60686493 10.63380768 32.59654236 9.79105286 32.58590698 8.92276001 C32.58550856 6.86378753 32.68992412 4.80532065 32.8125 2.75 C34.8125 0.75 34.8125 0.75 36.72265625 0.51953125 C42.70138889 0.63888889 42.70138889 0.63888889 43.8125 1.75 C43.90641296 3.65243762 43.92993658 5.55838459 43.92602539 7.46313477 C43.92594986 8.6843251 43.92587433 9.90551544 43.92579651 11.16371155 C43.92068911 12.50627686 43.91547311 13.84884175 43.91015625 15.19140625 C43.90829199 16.55761158 43.90686813 17.92381757 43.90586853 19.2900238 C43.90204394 22.89201695 43.89221417 26.49397 43.88116455 30.09594727 C43.87094916 33.76903745 43.86637064 37.44213409 43.86132812 41.11523438 C43.85059184 48.32684123 43.83351614 55.538415 43.8125 62.75 C42.03858298 62.81589706 40.26396519 62.86313005 38.48925781 62.90234375 C37.00706757 62.94476196 37.00706757 62.94476196 35.49493408 62.98803711 C32.8125 62.75 32.8125 62.75 29.984375 60.3125 C29.22459452 59.1475942 28.50319063 57.957153 27.8125 56.75 C27.36712891 56.07324219 26.92175781 55.39648438 26.46289062 54.69921875 C24.95434621 52.4068827 23.50503993 50.08437731 22.0625 47.75 C21.01113216 46.06205413 19.95904168 44.37455817 18.90625 42.6875 C18.12894531 41.44033203 18.12894531 41.44033203 17.3359375 40.16796875 C15.92495015 37.92847857 14.48778392 35.71005869 13.03125 33.5 C12.61198242 32.86191406 12.19271484 32.22382812 11.76074219 31.56640625 C10.63111734 29.85401651 9.49543898 28.14562457 8.359375 26.4375 C6.8125 23.75 6.8125 23.75 6.8125 20.75 C6.1525 20.75 5.4925 20.75 4.8125 20.75 C4.8125 34.61 4.8125 48.47 4.8125 62.75 C1.5125 62.75 -1.7875 62.75 -5.1875 62.75 C-6.92803132 61.00946868 -6.3240843 58.61996997 -6.33276367 56.25219727 C-6.33914352 55.07750381 -6.34552338 53.90281036 -6.35209656 52.69252014 C-6.35320938 51.41340256 -6.3543222 50.13428497 -6.35546875 48.81640625 C-6.35879715 47.51299789 -6.36212555 46.20958954 -6.36555481 44.86668396 C-6.371552 42.10341565 -6.37339412 39.34017865 -6.37280273 36.5769043 C-6.37270109 33.03131527 -6.38635231 29.48592643 -6.40357494 25.94038486 C-6.41735013 22.56572201 -6.41678323 19.19109691 -6.41796875 15.81640625 C-6.42515427 14.5393129 -6.43233978 13.26221954 -6.43974304 11.94642639 C-6.43666641 10.76858078 -6.43358978 9.59073517 -6.43041992 8.37719727 C-6.43184494 7.33652603 -6.43326996 6.2958548 -6.43473816 5.22364807 C-6.01349148 1.00902348 -3.84004706 0.34368752 0 0 Z " fill="#40CAD1" transform="translate(918.1875,487.25)"/>
<path d="M0 0 C2.87391474 0.07525142 4.23668637 0.19819557 6.40478516 2.12744141 C7.96186372 4.33334747 9.26587296 6.58214882 10.55078125 8.95703125 C11.56566261 10.6918415 12.58131137 12.426203 13.59765625 14.16015625 C14.11005859 15.06056641 14.62246094 15.96097656 15.15039062 16.88867188 C17.75056089 21.40139051 20.52496053 25.80102739 23.30078125 30.20703125 C23.80134033 31.02147705 24.30189941 31.83592285 24.81762695 32.67504883 C25.28773193 33.42939209 25.75783691 34.18373535 26.2421875 34.9609375 C26.65283447 35.62552979 27.06348145 36.29012207 27.48657227 36.97485352 C28.80935253 38.9324256 28.80935253 38.9324256 31.73828125 40.64453125 C31.7225708 38.93354248 31.7225708 38.93354248 31.70654297 37.18798828 C31.67040408 32.96503831 31.64740313 28.74210206 31.62841797 24.51904297 C31.61834641 22.68959252 31.60468849 20.86015822 31.58740234 19.03076172 C31.56320448 16.40458191 31.55180993 13.7786145 31.54296875 11.15234375 C31.53264618 10.33146271 31.52232361 9.51058167 31.51168823 8.66482544 C31.51128941 6.65663983 31.61578585 4.64897743 31.73828125 2.64453125 C33.73828125 0.64453125 33.73828125 0.64453125 35.6484375 0.4140625 C41.62717014 0.53342014 41.62717014 0.53342014 42.73828125 1.64453125 C42.83219421 3.54696887 42.85571783 5.45291584 42.85180664 7.35766602 C42.85173111 8.57885635 42.85165558 9.80004669 42.85157776 11.0582428 C42.84647036 12.40080811 42.84125436 13.743373 42.8359375 15.0859375 C42.83407324 16.45214283 42.83264938 17.81834882 42.83164978 19.18455505 C42.82782519 22.7865482 42.81799542 26.38850125 42.8069458 29.99047852 C42.79673041 33.6635687 42.79215189 37.33666534 42.78710938 41.00976562 C42.77637309 48.22137248 42.75929739 55.43294625 42.73828125 62.64453125 C41.13041074 62.69822951 39.52202484 62.73665373 37.91357422 62.76855469 C37.01798798 62.79157654 36.12240173 62.81459839 35.19967651 62.83831787 C32.73828125 62.64453125 32.73828125 62.64453125 29.93359375 60.66015625 C27.27655807 57.01027805 24.89548827 53.28763407 22.61328125 49.39453125 C21.65822768 47.79699311 20.70113734 46.20067114 19.7421875 44.60546875 C19.25250488 43.79045898 18.76282227 42.97544922 18.25830078 42.13574219 C14.23619513 35.54377847 9.95772111 29.11068584 5.73828125 22.64453125 C5.40828125 35.84453125 5.07828125 49.04453125 4.73828125 62.64453125 C1.43828125 62.64453125 -1.86171875 62.64453125 -5.26171875 62.64453125 C-7.00225007 60.90399993 -6.39830305 58.51450122 -6.40698242 56.14672852 C-6.41336227 54.97203506 -6.41974213 53.79734161 -6.42631531 52.58705139 C-6.42742813 51.30793381 -6.42854095 50.02881622 -6.4296875 48.7109375 C-6.4330159 47.40752914 -6.4363443 46.10412079 -6.43977356 44.76121521 C-6.44577075 41.9979469 -6.44761287 39.2347099 -6.44702148 36.47143555 C-6.44691984 32.92584652 -6.46057106 29.38045768 -6.47779369 25.83491611 C-6.49156888 22.46025326 -6.49100198 19.08562816 -6.4921875 15.7109375 C-6.49937302 14.43384415 -6.50655853 13.15675079 -6.51396179 11.84095764 C-6.51088516 10.66311203 -6.50780853 9.48526642 -6.50463867 8.27172852 C-6.50606369 7.23105728 -6.50748871 6.19038605 -6.50895691 5.11817932 C-6.08074559 0.83387257 -3.88297425 0.26479504 0 0 Z " fill="#40CAD1" transform="translate(690.26171875,487.35546875)"/>
<path d="M0 0 C2.71132041 0.070994 4.16720929 0.13740298 6.27978516 1.87744141 C7.70327902 3.81367312 8.86770849 5.78520244 10.01953125 7.89453125 C10.94083075 9.44825806 11.86272927 11.0016298 12.78515625 12.5546875 C13.49188477 13.78276123 13.49188477 13.78276123 14.21289062 15.03564453 C16.76508127 19.38521127 19.53653554 23.59471006 22.26953125 27.83203125 C28.14751015 36.9680635 28.14751015 36.9680635 29.70703125 41.58203125 C30.36703125 41.58203125 31.02703125 41.58203125 31.70703125 41.58203125 C31.72685059 40.4110791 31.74666992 39.24012695 31.76708984 38.03369141 C31.84303206 33.69867051 31.93176645 29.3639903 32.02441406 25.02929688 C32.06275102 23.15143549 32.09759552 21.27349949 32.12890625 19.39550781 C32.17445488 16.69959804 32.232465 14.00420413 32.29296875 11.30859375 C32.30451996 10.46583893 32.31607117 9.62308411 32.32797241 8.75479126 C32.47928784 2.80977466 32.47928784 2.80977466 34.70703125 0.58203125 C38.26953125 0.39453125 38.26953125 0.39453125 41.70703125 0.58203125 C42.70703125 1.58203125 42.70703125 1.58203125 42.82728577 4.01808167 C42.82506516 5.0995195 42.82284454 6.18095734 42.82055664 7.29516602 C42.82048111 8.51635635 42.82040558 9.73754669 42.82032776 10.9957428 C42.81522036 12.33830811 42.81000436 13.680873 42.8046875 15.0234375 C42.80282324 16.38964283 42.80139938 17.75584882 42.80039978 19.12205505 C42.79657519 22.7240482 42.78674542 26.32600125 42.7756958 29.92797852 C42.76548041 33.6010687 42.76090189 37.27416534 42.75585938 40.94726562 C42.74512309 48.15887248 42.72804739 55.37044625 42.70703125 62.58203125 C41.08800397 62.62148913 39.46870245 62.64981871 37.84936523 62.67333984 C36.94766098 62.690289 36.04595673 62.70723816 35.1169281 62.72470093 C32.70703125 62.58203125 32.70703125 62.58203125 30.4296875 61.12109375 C29.86121094 60.28320312 29.29273438 59.4453125 28.70703125 58.58203125 C28.2982373 57.98100586 27.88944336 57.37998047 27.46826172 56.76074219 C25.97979846 54.51994362 24.55865245 52.24543265 23.14453125 49.95703125 C22.62729492 49.12905029 22.11005859 48.30106934 21.57714844 47.44799805 C16.22686557 38.86301927 10.96221302 30.22542232 5.70703125 21.58203125 C5.37703125 35.11203125 5.04703125 48.64203125 4.70703125 62.58203125 C1.40703125 62.58203125 -1.89296875 62.58203125 -5.29296875 62.58203125 C-7.03350007 60.84149993 -6.42955305 58.45200122 -6.43823242 56.08422852 C-6.44461227 54.90953506 -6.45099213 53.73484161 -6.45756531 52.52455139 C-6.45867813 51.24543381 -6.45979095 49.96631622 -6.4609375 48.6484375 C-6.4642659 47.34502914 -6.4675943 46.04162079 -6.47102356 44.69871521 C-6.47702075 41.9354469 -6.47886287 39.1722099 -6.47827148 36.40893555 C-6.47816984 32.86334652 -6.49182106 29.31795768 -6.50904369 25.77241611 C-6.52281888 22.39775326 -6.52225198 19.02312816 -6.5234375 15.6484375 C-6.53062302 14.37134415 -6.53780853 13.09425079 -6.54521179 11.77845764 C-6.54213516 10.60061203 -6.53905853 9.42276642 -6.53588867 8.20922852 C-6.53731369 7.16855728 -6.53873871 6.12788605 -6.54020691 5.05567932 C-6.10851455 0.73654436 -3.90298904 0.21850155 0 0 Z " fill="#40CAD1" transform="translate(270.29296875,487.41796875)"/>
<path d="M0 0 C2.01822917 0.06510417 4.03645833 0.13020833 6.0546875 0.1953125 C8.77771198 6.16297978 11.25663579 12.17762091 13.5546875 18.3203125 C14.24266923 20.14223707 14.93153199 21.9638291 15.62109375 23.78515625 C16.00023926 24.78659668 16.37938477 25.78803711 16.77001953 26.81982422 C19.04999936 32.81051239 21.36084528 38.78926303 23.67382812 44.76727295 C24.21870511 46.17583361 24.7631399 47.5845654 25.30712891 48.99346924 C26.07484077 50.98171385 26.84386237 52.96944671 27.61328125 54.95703125 C28.05986084 56.11162842 28.50644043 57.26622559 28.96655273 58.45581055 C29.97255245 61.10225205 29.97255245 61.10225205 31.0546875 63.1953125 C29.0959832 63.05454935 27.13772657 62.9075449 25.1796875 62.7578125 C24.08914063 62.67660156 22.99859375 62.59539063 21.875 62.51171875 C19.0546875 62.1953125 19.0546875 62.1953125 17.0546875 61.1953125 C15.984375 58.76171875 15.984375 58.76171875 14.9296875 55.7578125 C14.39988281 54.27474609 14.39988281 54.27474609 13.859375 52.76171875 C13.0546875 50.1953125 13.0546875 50.1953125 13.0546875 48.1953125 C5.7946875 48.5253125 -1.4653125 48.8553125 -8.9453125 49.1953125 C-9.7290625 51.3196875 -10.5128125 53.4440625 -11.3203125 55.6328125 C-14.12887549 61.85756029 -14.12887549 61.85756029 -17.5703125 63.28125 C-20.10520754 63.49009078 -22.42247258 63.49944933 -24.9453125 63.1953125 C-26.22419297 59.3586711 -25.42242013 58.07864873 -24.0234375 54.32421875 C-23.57991943 53.12249023 -23.13640137 51.92076172 -22.67944336 50.68261719 C-22.18520333 49.37417123 -21.69048182 48.06590706 -21.1953125 46.7578125 C-20.69558272 45.41976888 -20.19632061 44.08155052 -19.69750977 42.74316406 C-18.1306502 38.55395126 -16.5408039 34.37369145 -14.9453125 30.1953125 C-14.68441833 29.5109613 -14.42352417 28.82661011 -14.15472412 28.121521 C-12.41284015 23.55673836 -10.65322406 18.99909765 -8.8828125 14.4453125 C-8.41842773 13.24463135 -7.95404297 12.0439502 -7.47558594 10.80688477 C-7.04149414 9.70272217 -6.60740234 8.59855957 -6.16015625 7.4609375 C-5.77980225 6.48930664 -5.39944824 5.51767578 -5.00756836 4.51660156 C-3.78807255 1.85170472 -3.05461772 0.30668853 0 0 Z " fill="#40CAD1" transform="translate(595.9453125,487.8046875)"/>
<path d="M0 0 C2.01822917 0.06510417 4.03645833 0.13020833 6.0546875 0.1953125 C9.21654788 7.07057093 11.98981753 14.06137767 14.6796875 21.1328125 C15.55595552 23.42319011 16.43225871 25.71355427 17.30859375 28.00390625 C17.75734863 29.17937012 18.20610352 30.35483398 18.66845703 31.56591797 C20.97763938 37.61176243 23.29691128 43.65371894 25.6171875 49.6953125 C26.26131592 51.37741821 26.26131592 51.37741821 26.91845703 53.09350586 C27.31532715 54.12741455 27.71219727 55.16132324 28.12109375 56.2265625 C28.47115479 57.13986328 28.82121582 58.05316406 29.18188477 58.99414062 C30.01556317 61.18876438 30.01556317 61.18876438 31.0546875 63.1953125 C29.11646154 63.16225748 27.17883082 63.09281345 25.2421875 63.0078125 C24.16324219 62.97300781 23.08429687 62.93820312 21.97265625 62.90234375 C19.0546875 62.1953125 19.0546875 62.1953125 17.35546875 60.20703125 C15.66920774 56.30280532 14.39954646 52.22988939 13.0546875 48.1953125 C5.7946875 48.5253125 -1.4653125 48.8553125 -8.9453125 49.1953125 C-10.2653125 52.1653125 -11.5853125 55.1353125 -12.9453125 58.1953125 C-13.6053125 59.5153125 -14.2653125 60.8353125 -14.9453125 62.1953125 C-18.2453125 62.1953125 -21.5453125 62.1953125 -24.9453125 62.1953125 C-26.36968834 57.92218498 -24.60262674 55.0055682 -23.0078125 51.00390625 C-22.69005859 50.18519547 -22.37230469 49.36648468 -22.04492188 48.52296448 C-21.02046084 45.88940503 -19.98314188 43.26112865 -18.9453125 40.6328125 C-18.27648472 38.92025711 -17.60850709 37.20736945 -16.94140625 35.49414062 C-15.61349388 32.08699919 -14.27804431 28.68295132 -12.9375 25.28076172 C-11.5890319 21.85238723 -10.26260721 18.41659477 -8.953125 14.97314453 C-8.63601563 14.14339615 -8.31890625 13.31364777 -7.9921875 12.45875549 C-7.39150754 10.88466498 -6.79494359 9.30899567 -6.203125 7.73155212 C-3.37231696 0.33858604 -3.37231696 0.33858604 0 0 Z " fill="#40CAD1" transform="translate(491.9453125,487.8046875)"/>
<path d="M0 0 C5.4364651 4.32675367 7.11374151 9.26137938 8 16 C4.5200486 16.56715506 1.45806912 16.77298016 -2 16 C-4.07598997 13.85594479 -5.56328657 11.56132663 -7.22265625 9.0859375 C-9.29329935 6.65577615 -10.37858505 6.1612392 -13.5 5.6875 C-18.17873071 5.66358826 -21.60605112 6.73794032 -25 10 C-29.42207183 15.37713468 -29.39811166 21.91284402 -29.5 28.5625 C-29.51861084 29.3656665 -29.53722168 30.16883301 -29.55639648 30.99633789 C-29.481859 38.05858407 -27.53196894 43.46803106 -22.5 48.5 C-16.6880336 50.99084274 -10.00502948 51.00167649 -4 49 C-4 45.04 -4 41.08 -4 37 C-5.60875 36.855625 -7.2175 36.71125 -8.875 36.5625 C-13.75 36.125 -13.75 36.125 -16 35 C-16.125 32.125 -16.125 32.125 -16 29 C-14 27 -14 27 -11.86108398 26.75708008 C-10.56666382 26.76324341 -10.56666382 26.76324341 -9.24609375 26.76953125 C-8.30958984 26.77146484 -7.37308594 26.77339844 -6.40820312 26.77539062 C-4.93770508 26.79375977 -4.93770508 26.79375977 -3.4375 26.8125 C-2.45330078 26.81314453 -1.46910156 26.81378906 -0.45507812 26.81445312 C6.85982468 26.85982468 6.85982468 26.85982468 8 28 C8.3928126 32.07329586 8.41829986 36.16045424 8.5 40.25 C8.55414062 41.39597656 8.60828125 42.54195312 8.6640625 43.72265625 C8.79887661 51.99446471 8.79887661 51.99446471 6.53149414 54.84838867 C4.72964623 56.15584604 3.0330962 57.10170477 1 58 C-0.175625 58.598125 -1.35125 59.19625 -2.5625 59.8125 C-9.69310668 62.17097919 -17.45006343 62.44342523 -24.4296875 59.60546875 C-32.85871923 54.87573089 -38.10292617 49.28162044 -41 40 C-42.99660946 28.91091723 -42.60978324 16.68500545 -36.47265625 6.93359375 C-27.44187834 -4.92379369 -12.82513467 -7.3597547 0 0 Z " fill="#40CAD1" transform="translate(1096,491)"/>
<path d="M0 0 C4.04095937 3.55604425 7.67022668 7.68090672 9 13 C9 14.32 9 15.64 9 17 C5.55224102 17.48201679 2.42551489 17.7050983 -1 17 C-2.81643294 15.10119898 -3.78190581 13.329514 -4.8671875 10.9453125 C-6.28658978 8.50785617 -7.34837574 7.90319442 -10 7 C-14.09219692 6.84626809 -17.94393929 7.64797976 -21.8125 8.9375 C-27.21844481 14.03453368 -28.22701223 20.58919385 -28.46557617 27.74389648 C-28.47693604 28.52966064 -28.4882959 29.3154248 -28.5 30.125 C-28.51844971 30.876604 -28.53689941 31.62820801 -28.5559082 32.40258789 C-28.49441539 37.96433844 -27.17075638 42.38811243 -24 47 C-18.37856502 51.58892652 -13.09113208 51.68878831 -6 51 C-5.01 50.67 -4.02 50.34 -3 50 C-3 46.04 -3 42.08 -3 38 C-4.60875 37.855625 -6.2175 37.71125 -7.875 37.5625 C-12.75 37.125 -12.75 37.125 -15 36 C-15.125 33.125 -15.125 33.125 -15 30 C-13 28 -13 28 -10.86108398 27.75708008 C-9.56666382 27.76324341 -9.56666382 27.76324341 -8.24609375 27.76953125 C-7.30958984 27.77146484 -6.37308594 27.77339844 -5.40820312 27.77539062 C-3.93770508 27.79375977 -3.93770508 27.79375977 -2.4375 27.8125 C-1.45330078 27.81314453 -0.46910156 27.81378906 0.54492188 27.81445312 C7.85982468 27.85982468 7.85982468 27.85982468 9 29 C9.3092041 33.09642122 9.27844815 37.20584744 9.3125 41.3125 C9.34150391 42.46685547 9.37050781 43.62121094 9.40039062 44.81054688 C9.40876953 45.92107422 9.41714844 47.03160156 9.42578125 48.17578125 C9.44036377 49.19583252 9.45494629 50.21588379 9.4699707 51.2668457 C8.87692128 54.71577467 7.70066025 55.84788238 5 58 C2.45703125 59.01171875 2.45703125 59.01171875 -0.1875 59.6875 C-3.37527034 60.32766278 -3.37527034 60.32766278 -6 62 C-14.93589851 62.94345836 -21.47416067 61.89863724 -29 57 C-30.093125 56.319375 -31.18625 55.63875 -32.3125 54.9375 C-40.42805505 46.0670096 -40.9542599 35.50265072 -40.4765625 24.0234375 C-39.85106282 15.59647944 -37.37356078 8.87735396 -31.25 2.9375 C-22.29215188 -3.9531524 -10.08383374 -5.54702694 0 0 Z " fill="#40CAD1" transform="translate(366,490)"/>
<path d="M0 0 C5.97873264 0.11935764 5.97873264 0.11935764 7.08984375 1.23046875 C7.2474878 3.00916601 7.34085052 4.79365351 7.40625 6.578125 C7.44435791 7.55015869 7.48246582 8.52219238 7.52172852 9.52368164 C7.56483154 10.76754639 7.60793457 12.01141113 7.65234375 13.29296875 C7.79671875 17.23234375 7.94109375 21.17171875 8.08984375 25.23046875 C21.45484375 25.72546875 21.45484375 25.72546875 35.08984375 26.23046875 C35.01073734 18.42198038 35.01073734 18.42198038 34.90966797 10.61376953 C34.90467285 9.6442334 34.89967773 8.67469727 34.89453125 7.67578125 C34.8788208 6.18328857 34.8788208 6.18328857 34.86279297 4.66064453 C35.08984375 2.23046875 35.08984375 2.23046875 37.08984375 0.23046875 C39.80439331 -0.09705359 42.34215134 0.09962625 45.08984375 0.23046875 C46.08984375 1.23046875 46.08984375 1.23046875 46.21009827 3.66651917 C46.20787766 4.747957 46.20565704 5.82939484 46.20336914 6.94360352 C46.20329361 8.16479385 46.20321808 9.38598419 46.20314026 10.6441803 C46.19803286 11.98674561 46.19281686 13.3293105 46.1875 14.671875 C46.18563574 16.03808033 46.18421188 17.40428632 46.18321228 18.77049255 C46.17938769 22.3724857 46.16955792 25.97443875 46.1585083 29.57641602 C46.14829291 33.2495062 46.14371439 36.92260284 46.13867188 40.59570312 C46.12793559 47.80730998 46.11085989 55.01888375 46.08984375 62.23046875 C44.44409809 62.25735026 42.79822962 62.27680998 41.15234375 62.29296875 C39.77755859 62.31037109 39.77755859 62.31037109 38.375 62.328125 C36.08984375 62.23046875 36.08984375 62.23046875 35.08984375 61.23046875 C34.93159117 59.23264749 34.83865204 57.22958041 34.7734375 55.2265625 C34.73154297 54.01162109 34.68964844 52.79667969 34.64648438 51.54492188 C34.60716797 50.26552734 34.56785156 48.98613281 34.52734375 47.66796875 C34.48416016 46.38470703 34.44097656 45.10144531 34.39648438 43.77929688 C34.28999656 40.5964943 34.18937954 37.41349632 34.08984375 34.23046875 C25.50984375 34.56046875 16.92984375 34.89046875 8.08984375 35.23046875 C7.75984375 44.14046875 7.42984375 53.05046875 7.08984375 62.23046875 C3.78984375 62.23046875 0.48984375 62.23046875 -2.91015625 62.23046875 C-4.65068757 60.48993743 -4.04674055 58.10043872 -4.05541992 55.73266602 C-4.06179977 54.55797256 -4.06817963 53.38327911 -4.07475281 52.17298889 C-4.07586563 50.89387131 -4.07697845 49.61475372 -4.078125 48.296875 C-4.0814534 46.99346664 -4.0847818 45.69005829 -4.08821106 44.34715271 C-4.09420825 41.5838844 -4.09605037 38.8206474 -4.09545898 36.05737305 C-4.09535734 32.51178402 -4.10900856 28.96639518 -4.12623119 25.42085361 C-4.14000638 22.04619076 -4.13943948 18.67156566 -4.140625 15.296875 C-4.14781052 14.01978165 -4.15499603 12.74268829 -4.16239929 11.42689514 C-4.15932266 10.24904953 -4.15624603 9.07120392 -4.15307617 7.85766602 C-4.15450119 6.81699478 -4.15592621 5.77632355 -4.15739441 4.70411682 C-3.85301028 1.65871634 -3.16167103 0.38146951 0 0 Z " fill="#40CAD1" transform="translate(1120.91015625,487.76953125)"/>
<path d="M0 0 C4.69658729 4.38284766 6.73463973 8.6313535 7 15 C3.54715154 15.49131441 0.43330584 15.69178551 -3 15 C-5.08495496 13.1134112 -6.38901621 11.24542968 -7.84375 8.84765625 C-8.87278031 6.84654167 -8.87278031 6.84654167 -11 6 C-16.18278848 5.60132396 -19.68727288 5.99112061 -24 9 C-25.43968727 12.06361777 -25.43968727 12.06361777 -26 15 C-22.12344626 19.45728261 -18.6862694 21.23819574 -13.125 23.0625 C-4.85398233 25.85338214 2.0171156 28.28423119 6.12109375 36.4921875 C7.961582 41.74371396 7.93347085 46.74001793 5.8125 51.875 C1.2239155 57.25471976 -3.92598 60.44916196 -10.91796875 61.39453125 C-20.15715259 61.86918466 -27.62715508 59.46955003 -34.7890625 53.51171875 C-37.95682104 50.0753491 -39.02310486 46.44043246 -40 42 C-38 40 -38 40 -35.8359375 39.8046875 C-35.02382812 39.82789063 -34.21171875 39.85109375 -33.375 39.875 C-32.55773438 39.89304687 -31.74046875 39.91109375 -30.8984375 39.9296875 C-30.27195312 39.95289063 -29.64546875 39.97609375 -29 40 C-28.62875 41.093125 -28.2575 42.18625 -27.875 43.3125 C-26.64694794 46.09533357 -25.99499062 47.00388227 -23.5 48.9375 C-18.69264547 50.39687548 -13.98111101 50.76748236 -9 50 C-6.67572085 48.76676097 -6.67572085 48.76676097 -5 47 C-4.24939151 44.08617271 -4.24939151 44.08617271 -5 41 C-8.63736989 36.53815961 -12.40288612 34.81958317 -17.75 33.125 C-25.73701406 30.35449598 -32.05771764 27.06727267 -37.125 20.0625 C-38.67630528 14.63293153 -37.90857979 10.68736246 -35.25 5.75 C-26.35189732 -5.12545883 -12.00954774 -7.26679414 0 0 Z " fill="#40CAD1" transform="translate(1270,491)"/>
<path d="M0 0 C4.69658729 4.38284766 6.73463973 8.6313535 7 15 C3.7 15 0.4 15 -3 15 C-3.5775 13.88625 -4.155 12.7725 -4.75 11.625 C-5.99889338 9.47098528 -6.84972812 8.11918115 -8.8125 6.5625 C-14.2555843 5.16284975 -18.84438376 5.9880522 -24 8 C-24.33 11.3 -24.66 14.6 -25 18 C-22.20512186 19.13541924 -19.41504794 20.20207435 -16.5625 21.1875 C2.91604885 28.62206063 2.91604885 28.62206063 6.3515625 35.69921875 C7.96179832 41.41264585 8.56052628 47.06226227 5.703125 52.44140625 C1.02351082 58.26945786 -3.70313613 60.39512939 -10.94140625 61.4140625 C-19.97887667 62.00133495 -26.71605454 59.29648354 -34 54 C-37.61980239 50.08109083 -38.79649366 47.3929179 -39 42 C-37 40 -37 40 -35.0546875 39.8046875 C-33.03645833 39.86979167 -31.01822917 39.93489583 -29 40 C-28.62875 41.093125 -28.2575 42.18625 -27.875 43.3125 C-26.6606346 46.05175346 -25.9898722 47.0080503 -23.5625 48.9375 C-18.41881277 50.47158216 -13.32982704 50.592203 -8 50 C-7.01 49.34 -6.02 48.68 -5 48 C-4.24410877 42.61631173 -4.24410877 42.61631173 -6.48046875 37.953125 C-9.95346942 35.26087641 -13.63029406 34.06396639 -17.75 32.625 C-32.36678519 27.23258353 -32.36678519 27.23258353 -36.1640625 21.12890625 C-37.71974743 17.16699836 -37.52286959 13.17633808 -37 9 C-34.01612221 2.67417909 -29.00177829 -0.83264178 -22.625 -3.3125 C-14.37660504 -4.87685077 -7.34816043 -4.44625978 0 0 Z " fill="#40CAD1" transform="translate(1012,491)"/>
<path d="M0 0 C5.97873264 0.11935764 5.97873264 0.11935764 7.08984375 1.23046875 C7.18609985 2.64676812 7.21499816 4.06773839 7.21582031 5.48730469 C7.22153046 6.84441559 7.22153046 6.84441559 7.22735596 8.22894287 C7.22838318 9.21429016 7.2294104 10.19963745 7.23046875 11.21484375 C7.24879972 13.28516723 7.26837029 15.35548003 7.2890625 17.42578125 C7.3180281 20.70233059 7.33984341 23.97819716 7.34033203 27.25488281 C7.34366601 30.40882505 7.37822061 33.56117732 7.41796875 36.71484375 C7.41089905 37.69209412 7.40382935 38.66934448 7.39654541 39.6762085 C7.48061051 44.37405511 7.53845924 46.52447379 10.50683594 50.32519531 C13.89530745 52.82459339 15.74098517 53.44325687 19.90234375 53.60546875 C20.75441406 53.65445313 21.60648438 53.7034375 22.484375 53.75390625 C26.42128059 52.96298369 27.66408249 51.41689652 30.08984375 48.23046875 C30.81740657 44.73820567 30.76383178 41.3069083 30.7265625 37.75 C30.73694046 36.74080002 30.74731842 35.73160004 30.75801086 34.69181824 C30.78768054 31.47518715 30.78431524 28.25971198 30.77734375 25.04296875 C30.78622334 21.8158382 30.80211096 18.589017 30.82881165 15.36198425 C30.84378147 13.35545558 30.84749799 11.34880605 30.83903503 9.34223938 C30.84276627 8.43757431 30.8464975 7.53290924 30.8503418 6.60083008 C30.84770576 5.40433586 30.84770576 5.40433586 30.84501648 4.18367004 C31.08984375 2.23046875 31.08984375 2.23046875 33.08984375 0.23046875 C35.80439331 -0.09705359 38.34215134 0.09962625 41.08984375 0.23046875 C42.67126839 1.81189339 42.24070016 3.42852326 42.2668457 5.62329102 C42.28609856 7.02593956 42.28609856 7.02593956 42.30574036 8.45692444 C42.31312729 9.47660812 42.32051422 10.49629181 42.328125 11.546875 C42.33619675 12.59189682 42.34426849 13.63691864 42.35258484 14.71360779 C42.36644967 16.93381073 42.37716103 19.15403521 42.38500977 21.37426758 C42.40214864 24.75448844 42.44600507 28.13371266 42.49023438 31.51367188 C42.50036741 33.67056572 42.5088816 35.82746789 42.515625 37.984375 C42.53313309 38.98988907 42.55064117 39.99540314 42.56867981 41.03138733 C42.54578089 48.52327424 41.17335 54.1469625 35.77734375 59.54296875 C28.29487607 64.24126241 21.95889985 65.50777764 13.08984375 64.23046875 C5.94705105 61.56855843 0.65874933 58.01122774 -2.98339844 51.2331543 C-4.36565408 46.75466059 -4.19515153 42.41074441 -4.17578125 37.75 C-4.1776947 36.74080002 -4.17960815 35.73160004 -4.18157959 34.69181824 C-4.18293781 32.5644811 -4.17926675 30.43713557 -4.17089844 28.30981445 C-4.16016045 25.04424604 -4.1708233 21.77922359 -4.18359375 18.51367188 C-4.18227275 16.44661337 -4.17971158 14.3795552 -4.17578125 12.3125 C-4.17982971 11.332314 -4.18387817 10.35212799 -4.18804932 9.34223938 C-4.181745 8.43757431 -4.17544067 7.53290924 -4.16894531 6.60083008 C-4.16735413 5.80316727 -4.16576294 5.00550446 -4.16412354 4.18367004 C-3.80232732 1.40118236 -2.80051437 0.33789437 0 0 Z " fill="#40CAD1" transform="translate(62.91015625,487.76953125)"/>
<path d="M0 0 C4.85654426 2.89080016 7.17982416 6.77319362 9 12 C9.55347871 15.87049276 9.56048962 19.65839906 9.5 23.5625 C9.51546875 24.56474609 9.5309375 25.56699219 9.546875 26.59960938 C9.51346322 32.94367052 8.74643714 36.83824216 5 42 C1.59936869 44.92832141 -1.45049627 45.53374684 -5.94140625 45.35546875 C-10.35139632 44.59397141 -13.70865304 42.33587616 -16.8125 39.125 C-21.30335085 31.08874059 -21.3222309 20.71775525 -19.27734375 11.875 C-17.04021244 5.78855369 -14.28696509 2.76990428 -8.5625 -0.3125 C-5.26405512 -1.19744863 -3.27633171 -0.95559675 0 0 Z " fill="#FAFDFF" transform="translate(830,497)"/>
<path d="M0 0 C1.24123878 0.00213753 1.24123878 0.00213753 2.5075531 0.00431824 C3.44514969 0.00124161 4.38274628 -0.00183502 5.34875488 -0.00500488 C6.36336288 0.00218063 7.37797089 0.00936615 8.42332458 0.01676941 C9.9803434 0.01745674 9.9803434 0.01745674 11.56881714 0.01815796 C13.76536704 0.02118233 15.96191476 0.02907411 18.15843201 0.04142761 C21.53391556 0.05968136 24.90912497 0.06193737 28.28465271 0.06169128 C30.41421239 0.06660638 32.5437702 0.07243467 34.67332458 0.07926941 C35.68995682 0.08038223 36.70658905 0.08149506 37.75402832 0.0826416 C38.68847275 0.08902145 39.62291718 0.09540131 40.5856781 0.10197449 C41.41237503 0.10578629 42.23907196 0.10959808 43.09082031 0.11352539 C44.98191833 0.24723816 44.98191833 0.24723816 45.98191833 1.24723816 C46.12306995 3.91782667 46.02438941 6.57156054 45.98191833 9.24723816 C44.05025818 9.33811707 44.05025818 9.33811707 42.07957458 9.43083191 C40.40117675 9.51522063 38.72279197 9.59986945 37.04441833 9.68473816 C35.76921326 9.74371277 35.76921326 9.74371277 34.46824646 9.80387878 C33.65935974 9.84577332 32.85047302 9.88766785 32.01707458 9.93083191 C31.26820984 9.96748962 30.51934509 10.00414734 29.74778748 10.04191589 C27.95730507 10.06494878 27.95730507 10.06494878 26.98191833 11.24723816 C26.85918985 12.84237709 26.8041079 14.44278748 26.77659607 16.04240417 C26.75665085 17.06338699 26.73670563 18.08436981 26.71615601 19.1362915 C26.69944351 20.24669296 26.68273102 21.35709442 26.66551208 22.50114441 C26.64473099 23.63172775 26.62394989 24.7623111 26.60253906 25.92715454 C26.53692037 29.55461801 26.47810156 33.18215649 26.41941833 36.80973816 C26.37624482 39.26222001 26.33263093 41.71469416 26.28855896 44.16716003 C26.1812265 50.19377242 26.07948344 56.22046017 25.98191833 62.24723816 C24.33617268 62.27411967 22.6903042 62.29357939 21.04441833 62.30973816 C20.1278949 62.32133972 19.21137146 62.33294128 18.26707458 62.34489441 C15.98191833 62.24723816 15.98191833 62.24723816 14.98191833 61.24723816 C14.85918985 59.65209923 14.8041079 58.05168884 14.77659607 56.45207214 C14.75665085 55.43108932 14.73670563 54.41010651 14.71615601 53.35818481 C14.69944351 52.24778336 14.68273102 51.1373819 14.66551208 49.99333191 C14.64473099 48.86274857 14.62394989 47.73216522 14.60253906 46.56732178 C14.53692037 42.93985831 14.47810156 39.31231983 14.41941833 35.68473816 C14.37624482 33.2322563 14.33263093 30.77978216 14.28855896 28.32731628 C14.1812265 22.30070389 14.07948344 16.27401615 13.98191833 10.24723816 C12.15853943 10.15635925 12.15853943 10.15635925 10.29832458 10.06364441 C8.71367606 9.97925484 7.12904132 9.89460606 5.54441833 9.80973816 C4.74197693 9.77042175 3.93953552 9.73110535 3.11277771 9.69059753 C-2.90480042 9.36051941 -2.90480042 9.36051941 -4.01808167 8.24723816 C-4.20558167 5.30973816 -4.20558167 5.30973816 -4.01808167 2.24723816 C-2.01808167 0.24723816 -2.01808167 0.24723816 0 0 Z " fill="#40CAD1" transform="translate(1179.018081665039,487.7527618408203)"/>
<path d="M0 0 C1.24123878 0.00213753 1.24123878 0.00213753 2.5075531 0.00431824 C3.44514969 0.00124161 4.38274628 -0.00183502 5.34875488 -0.00500488 C6.36336288 0.00218063 7.37797089 0.00936615 8.42332458 0.01676941 C9.9803434 0.01745674 9.9803434 0.01745674 11.56881714 0.01815796 C13.76536704 0.02118233 15.96191476 0.02907411 18.15843201 0.04142761 C21.53391556 0.05968136 24.90912497 0.06193737 28.28465271 0.06169128 C30.41421239 0.06660638 32.5437702 0.07243467 34.67332458 0.07926941 C35.68995682 0.08038223 36.70658905 0.08149506 37.75402832 0.0826416 C38.68847275 0.08902145 39.62291718 0.09540131 40.5856781 0.10197449 C41.41237503 0.10578629 42.23907196 0.10959808 43.09082031 0.11352539 C44.98191833 0.24723816 44.98191833 0.24723816 45.98191833 1.24723816 C46.12306995 3.91782667 46.02438941 6.57156054 45.98191833 9.24723816 C44.05025818 9.33811707 44.05025818 9.33811707 42.07957458 9.43083191 C40.40117675 9.51522063 38.72279197 9.59986945 37.04441833 9.68473816 C35.76921326 9.74371277 35.76921326 9.74371277 34.46824646 9.80387878 C33.65935974 9.84577332 32.85047302 9.88766785 32.01707458 9.93083191 C31.26820984 9.96748962 30.51934509 10.00414734 29.74778748 10.04191589 C27.95730507 10.06494878 27.95730507 10.06494878 26.98191833 11.24723816 C26.85918985 12.84237709 26.8041079 14.44278748 26.77659607 16.04240417 C26.75665085 17.06338699 26.73670563 18.08436981 26.71615601 19.1362915 C26.69944351 20.24669296 26.68273102 21.35709442 26.66551208 22.50114441 C26.64473099 23.63172775 26.62394989 24.7623111 26.60253906 25.92715454 C26.53692037 29.55461801 26.47810156 33.18215649 26.41941833 36.80973816 C26.37624482 39.26222001 26.33263093 41.71469416 26.28855896 44.16716003 C26.1812265 50.19377242 26.07948344 56.22046017 25.98191833 62.24723816 C24.33617268 62.27411967 22.6903042 62.29357939 21.04441833 62.30973816 C20.1278949 62.32133972 19.21137146 62.33294128 18.26707458 62.34489441 C15.98191833 62.24723816 15.98191833 62.24723816 14.98191833 61.24723816 C14.85918985 59.65209923 14.8041079 58.05168884 14.77659607 56.45207214 C14.75665085 55.43108932 14.73670563 54.41010651 14.71615601 53.35818481 C14.69944351 52.24778336 14.68273102 51.1373819 14.66551208 49.99333191 C14.64473099 48.86274857 14.62394989 47.73216522 14.60253906 46.56732178 C14.53692037 42.93985831 14.47810156 39.31231983 14.41941833 35.68473816 C14.37624482 33.2322563 14.33263093 30.77978216 14.28855896 28.32731628 C14.1812265 22.30070389 14.07948344 16.27401615 13.98191833 10.24723816 C12.15853943 10.15635925 12.15853943 10.15635925 10.29832458 10.06364441 C8.71367606 9.97925484 7.12904132 9.89460606 5.54441833 9.80973816 C4.74197693 9.77042175 3.93953552 9.73110535 3.11277771 9.69059753 C-2.90480042 9.36051941 -2.90480042 9.36051941 -4.01808167 8.24723816 C-4.20558167 5.30973816 -4.20558167 5.30973816 -4.01808167 2.24723816 C-2.01808167 0.24723816 -2.01808167 0.24723816 0 0 Z " fill="#40CAD1" transform="translate(747.0180816650391,487.7527618408203)"/>
<path d="M0 0 C0.80972763 0.00142502 1.61945526 0.00285004 2.45372009 0.00431824 C3.83008385 -0.00029671 3.83008385 -0.00029671 5.23425293 -0.00500488 C6.22698715 0.00218063 7.21972137 0.00936615 8.24253845 0.01676941 C9.7662632 0.01745674 9.7662632 0.01745674 11.32077026 0.01815796 C13.47024197 0.0211822 15.61971145 0.0290736 17.76914978 0.04142761 C21.07220662 0.05968192 24.37498332 0.06193736 27.67808533 0.06169128 C29.76207214 0.06660637 31.84605705 0.07243465 33.93003845 0.07926941 C35.42217613 0.08093864 35.42217613 0.08093864 36.94445801 0.0826416 C37.85888168 0.08902145 38.77330536 0.09540131 39.71543884 0.10197449 C40.9288369 0.10769218 40.9288369 0.10769218 42.16674805 0.11352539 C44.0198822 0.24723816 44.0198822 0.24723816 45.0198822 1.24723816 C45.16103381 3.91782667 45.06235328 6.57156054 45.0198822 9.24723816 C43.1965033 9.33811707 43.1965033 9.33811707 41.33628845 9.43083191 C39.75163992 9.51522148 38.16700518 9.59987026 36.5823822 9.68473816 C35.7799408 9.72405457 34.97749939 9.76337097 34.15074158 9.80387878 C30.26748659 9.65266776 30.26748659 9.65266776 27.0198822 11.24723816 C26.89715371 12.84237709 26.84207177 14.44278748 26.81455994 16.04240417 C26.79461472 17.06338699 26.77466949 18.08436981 26.75411987 19.1362915 C26.73740738 20.24669296 26.72069489 21.35709442 26.70347595 22.50114441 C26.68269485 23.63172775 26.66191376 24.7623111 26.64050293 25.92715454 C26.57488423 29.55461801 26.51606543 33.18215649 26.4573822 36.80973816 C26.41420869 39.26222001 26.3705948 41.71469416 26.32652283 44.16716003 C26.21919037 50.19377242 26.1174473 56.22046017 26.0198822 62.24723816 C24.37413654 62.27411967 22.72826807 62.29357939 21.0823822 62.30973816 C20.16585876 62.32133972 19.24933533 62.33294128 18.30503845 62.34489441 C16.0198822 62.24723816 16.0198822 62.24723816 15.0198822 61.24723816 C14.89715371 59.65209923 14.84207177 58.05168884 14.81455994 56.45207214 C14.79461472 55.43108932 14.77466949 54.41010651 14.75411987 53.35818481 C14.73740738 52.24778336 14.72069489 51.1373819 14.70347595 49.99333191 C14.68269485 48.86274857 14.66191376 47.73216522 14.64050293 46.56732178 C14.57488423 42.93985831 14.51606543 39.31231983 14.4573822 35.68473816 C14.41420869 33.2322563 14.3705948 30.77978216 14.32652283 28.32731628 C14.21919037 22.30070389 14.1174473 16.27401615 14.0198822 10.24723816 C12.1965033 10.15635925 12.1965033 10.15635925 10.33628845 10.06364441 C8.75163992 9.97925484 7.16700518 9.89460606 5.5823822 9.80973816 C4.7799408 9.77042175 3.97749939 9.73110535 3.15074158 9.69059753 C-2.86683655 9.36051941 -2.86683655 9.36051941 -3.9801178 8.24723816 C-4.1676178 5.30973816 -4.1676178 5.30973816 -3.9801178 2.24723816 C-1.9801178 0.24723816 -1.9801178 0.24723816 0 0 Z " fill="#40CAD1" transform="translate(524.9801177978516,487.7527618408203)"/>
<path d="M0 0 C0.80972763 0.00142502 1.61945526 0.00285004 2.45372009 0.00431824 C3.83008385 -0.00029671 3.83008385 -0.00029671 5.23425293 -0.00500488 C6.22698715 0.00218063 7.21972137 0.00936615 8.24253845 0.01676941 C9.7662632 0.01745674 9.7662632 0.01745674 11.32077026 0.01815796 C13.47024197 0.0211822 15.61971145 0.0290736 17.76914978 0.04142761 C21.07220662 0.05968192 24.37498332 0.06193736 27.67808533 0.06169128 C29.76207214 0.06660637 31.84605705 0.07243465 33.93003845 0.07926941 C35.42217613 0.08093864 35.42217613 0.08093864 36.94445801 0.0826416 C37.85888168 0.08902145 38.77330536 0.09540131 39.71543884 0.10197449 C40.9288369 0.10769218 40.9288369 0.10769218 42.16674805 0.11352539 C44.0198822 0.24723816 44.0198822 0.24723816 45.0198822 1.24723816 C45.16103381 3.91782667 45.06235328 6.57156054 45.0198822 9.24723816 C43.1965033 9.33811707 43.1965033 9.33811707 41.33628845 9.43083191 C39.75163992 9.51522148 38.16700518 9.59987026 36.5823822 9.68473816 C35.7799408 9.72405457 34.97749939 9.76337097 34.15074158 9.80387878 C30.26748659 9.65266776 30.26748659 9.65266776 27.0198822 11.24723816 C26.89715371 12.84237709 26.84207177 14.44278748 26.81455994 16.04240417 C26.79461472 17.06338699 26.77466949 18.08436981 26.75411987 19.1362915 C26.73740738 20.24669296 26.72069489 21.35709442 26.70347595 22.50114441 C26.68269485 23.63172775 26.66191376 24.7623111 26.64050293 25.92715454 C26.57488423 29.55461801 26.51606543 33.18215649 26.4573822 36.80973816 C26.41420869 39.26222001 26.3705948 41.71469416 26.32652283 44.16716003 C26.21919037 50.19377242 26.1174473 56.22046017 26.0198822 62.24723816 C24.37413654 62.27411967 22.72826807 62.29357939 21.0823822 62.30973816 C20.16585876 62.32133972 19.24933533 62.33294128 18.30503845 62.34489441 C16.0198822 62.24723816 16.0198822 62.24723816 15.0198822 61.24723816 C14.89715371 59.65209923 14.84207177 58.05168884 14.81455994 56.45207214 C14.79461472 55.43108932 14.77466949 54.41010651 14.75411987 53.35818481 C14.73740738 52.24778336 14.72069489 51.1373819 14.70347595 49.99333191 C14.68269485 48.86274857 14.66191376 47.73216522 14.64050293 46.56732178 C14.57488423 42.93985831 14.51606543 39.31231983 14.4573822 35.68473816 C14.41420869 33.2322563 14.3705948 30.77978216 14.32652283 28.32731628 C14.21919037 22.30070389 14.1174473 16.27401615 14.0198822 10.24723816 C12.1965033 10.15635925 12.1965033 10.15635925 10.33628845 10.06364441 C8.75163992 9.97925484 7.16700518 9.89460606 5.5823822 9.80973816 C4.7799408 9.77042175 3.97749939 9.73110535 3.15074158 9.69059753 C-2.86683655 9.36051941 -2.86683655 9.36051941 -3.9801178 8.24723816 C-4.1676178 5.30973816 -4.1676178 5.30973816 -3.9801178 2.24723816 C-1.9801178 0.24723816 -1.9801178 0.24723816 0 0 Z " fill="#40CAD1" transform="translate(4.9801177978515625,487.7527618408203)"/>
<path d="M0 0 C4.4975243 0.11648264 7.51601913 0.6205603 11.25 3.3125 C16.78972075 9.68016814 17.45299168 14.90442061 17.5 23.125 C17.520625 24.01509766 17.54125 24.90519531 17.5625 25.82226562 C17.60096313 32.30811079 16.60661214 36.58766722 12.25 41.625 C8.60691613 44.69885201 5.21167504 44.44767001 0.625 44.4375 C-0.54289062 44.44007813 -1.71078125 44.44265625 -2.9140625 44.4453125 C-5.75 44.3125 -5.75 44.3125 -6.75 43.3125 C-6.86356724 40.3061175 -6.91418912 37.32357558 -6.91796875 34.31640625 C-6.92129715 33.4125267 -6.92462555 32.50864716 -6.92805481 31.57737732 C-6.93312796 29.66153473 -6.93546302 27.74568328 -6.93530273 25.82983398 C-6.93748813 22.89096582 -6.95563665 19.95247348 -6.97460938 17.01367188 C-6.97754337 15.15625129 -6.97952813 13.29882891 -6.98046875 11.44140625 C-6.98765427 10.55804092 -6.99483978 9.6746756 -7.00224304 8.76454163 C-6.97843621 2.43897676 -6.62030091 0.03009228 0 0 Z " fill="#FAFDFF" transform="translate(429.75,496.6875)"/>
<path d="M0 0 C5.97873264 0.11935764 5.97873264 0.11935764 7.08984375 1.23046875 C7.18375671 3.13290637 7.20728033 5.03885334 7.20336914 6.94360352 C7.20329361 8.16479385 7.20321808 9.38598419 7.20314026 10.6441803 C7.19803286 11.98674561 7.19281686 13.3293105 7.1875 14.671875 C7.18563574 16.03808033 7.18421188 17.40428632 7.18321228 18.77049255 C7.17938769 22.3724857 7.16955792 25.97443875 7.1585083 29.57641602 C7.14829291 33.2495062 7.14371439 36.92260284 7.13867188 40.59570312 C7.12793559 47.80730998 7.11085989 55.01888375 7.08984375 62.23046875 C5.44409809 62.25735026 3.79822962 62.27680998 2.15234375 62.29296875 C1.23582031 62.30457031 0.31929687 62.31617188 -0.625 62.328125 C-2.91015625 62.23046875 -2.91015625 62.23046875 -3.91015625 61.23046875 C-4.014445 59.40019703 -4.04869999 57.5658942 -4.05541992 55.73266602 C-4.06179977 54.55797256 -4.06817963 53.38327911 -4.07475281 52.17298889 C-4.07586563 50.89387131 -4.07697845 49.61475372 -4.078125 48.296875 C-4.0814534 46.99346664 -4.0847818 45.69005829 -4.08821106 44.34715271 C-4.09420825 41.5838844 -4.09605037 38.8206474 -4.09545898 36.05737305 C-4.09535734 32.51178402 -4.10900856 28.96639518 -4.12623119 25.42085361 C-4.14000638 22.04619076 -4.13943948 18.67156566 -4.140625 15.296875 C-4.14781052 14.01978165 -4.15499603 12.74268829 -4.16239929 11.42689514 C-4.15932266 10.24904953 -4.15624603 9.07120392 -4.15307617 7.85766602 C-4.15450119 6.81699478 -4.15592621 5.77632355 -4.15739441 4.70411682 C-3.85301028 1.65871634 -3.16167103 0.38146951 0 0 Z " fill="#40CAD1" transform="translate(1034.91015625,487.76953125)"/>
<path d="M0 0 C5.97873264 0.11935764 5.97873264 0.11935764 7.08984375 1.23046875 C7.18375671 3.13290637 7.20728033 5.03885334 7.20336914 6.94360352 C7.20329361 8.16479385 7.20321808 9.38598419 7.20314026 10.6441803 C7.19803286 11.98674561 7.19281686 13.3293105 7.1875 14.671875 C7.18563574 16.03808033 7.18421188 17.40428632 7.18321228 18.77049255 C7.17938769 22.3724857 7.16955792 25.97443875 7.1585083 29.57641602 C7.14829291 33.2495062 7.14371439 36.92260284 7.13867188 40.59570312 C7.12793559 47.80730998 7.11085989 55.01888375 7.08984375 62.23046875 C5.44409809 62.25735026 3.79822962 62.27680998 2.15234375 62.29296875 C1.23582031 62.30457031 0.31929687 62.31617188 -0.625 62.328125 C-2.91015625 62.23046875 -2.91015625 62.23046875 -3.91015625 61.23046875 C-4.014445 59.40019703 -4.04869999 57.5658942 -4.05541992 55.73266602 C-4.06179977 54.55797256 -4.06817963 53.38327911 -4.07475281 52.17298889 C-4.07586563 50.89387131 -4.07697845 49.61475372 -4.078125 48.296875 C-4.0814534 46.99346664 -4.0847818 45.69005829 -4.08821106 44.34715271 C-4.09420825 41.5838844 -4.09605037 38.8206474 -4.09545898 36.05737305 C-4.09535734 32.51178402 -4.10900856 28.96639518 -4.12623119 25.42085361 C-4.14000638 22.04619076 -4.13943948 18.67156566 -4.140625 15.296875 C-4.14781052 14.01978165 -4.15499603 12.74268829 -4.16239929 11.42689514 C-4.15932266 10.24904953 -4.15624603 9.07120392 -4.15307617 7.85766602 C-4.15450119 6.81699478 -4.15592621 5.77632355 -4.15739441 4.70411682 C-3.85301028 1.65871634 -3.16167103 0.38146951 0 0 Z " fill="#40CAD1" transform="translate(890.91015625,487.76953125)"/>
<path d="M0 0 C5.97873264 0.11935764 5.97873264 0.11935764 7.08984375 1.23046875 C7.18375671 3.13290637 7.20728033 5.03885334 7.20336914 6.94360352 C7.20329361 8.16479385 7.20321808 9.38598419 7.20314026 10.6441803 C7.19803286 11.98674561 7.19281686 13.3293105 7.1875 14.671875 C7.18563574 16.03808033 7.18421188 17.40428632 7.18321228 18.77049255 C7.17938769 22.3724857 7.16955792 25.97443875 7.1585083 29.57641602 C7.14829291 33.2495062 7.14371439 36.92260284 7.13867188 40.59570312 C7.12793559 47.80730998 7.11085989 55.01888375 7.08984375 62.23046875 C5.44409809 62.25735026 3.79822962 62.27680998 2.15234375 62.29296875 C1.23582031 62.30457031 0.31929687 62.31617188 -0.625 62.328125 C-2.91015625 62.23046875 -2.91015625 62.23046875 -3.91015625 61.23046875 C-4.014445 59.40019703 -4.04869999 57.5658942 -4.05541992 55.73266602 C-4.06179977 54.55797256 -4.06817963 53.38327911 -4.07475281 52.17298889 C-4.07586563 50.89387131 -4.07697845 49.61475372 -4.078125 48.296875 C-4.0814534 46.99346664 -4.0847818 45.69005829 -4.08821106 44.34715271 C-4.09420825 41.5838844 -4.09605037 38.8206474 -4.09545898 36.05737305 C-4.09535734 32.51178402 -4.10900856 28.96639518 -4.12623119 25.42085361 C-4.14000638 22.04619076 -4.13943948 18.67156566 -4.140625 15.296875 C-4.14781052 14.01978165 -4.15499603 12.74268829 -4.16239929 11.42689514 C-4.15932266 10.24904953 -4.15624603 9.07120392 -4.15307617 7.85766602 C-4.15450119 6.81699478 -4.15592621 5.77632355 -4.15739441 4.70411682 C-3.85301028 1.65871634 -3.16167103 0.38146951 0 0 Z " fill="#40CAD1" transform="translate(661.91015625,487.76953125)"/>
<path d="M0 0 C5.97873264 0.11935764 5.97873264 0.11935764 7.08984375 1.23046875 C7.18375671 3.13290637 7.20728033 5.03885334 7.20336914 6.94360352 C7.20329361 8.16479385 7.20321808 9.38598419 7.20314026 10.6441803 C7.19803286 11.98674561 7.19281686 13.3293105 7.1875 14.671875 C7.18563574 16.03808033 7.18421188 17.40428632 7.18321228 18.77049255 C7.17938769 22.3724857 7.16955792 25.97443875 7.1585083 29.57641602 C7.14829291 33.2495062 7.14371439 36.92260284 7.13867188 40.59570312 C7.12793559 47.80730998 7.11085989 55.01888375 7.08984375 62.23046875 C5.44409809 62.25735026 3.79822962 62.27680998 2.15234375 62.29296875 C1.23582031 62.30457031 0.31929687 62.31617188 -0.625 62.328125 C-2.91015625 62.23046875 -2.91015625 62.23046875 -3.91015625 61.23046875 C-4.014445 59.40019703 -4.04869999 57.5658942 -4.05541992 55.73266602 C-4.06179977 54.55797256 -4.06817963 53.38327911 -4.07475281 52.17298889 C-4.07586563 50.89387131 -4.07697845 49.61475372 -4.078125 48.296875 C-4.0814534 46.99346664 -4.0847818 45.69005829 -4.08821106 44.34715271 C-4.09420825 41.5838844 -4.09605037 38.8206474 -4.09545898 36.05737305 C-4.09535734 32.51178402 -4.10900856 28.96639518 -4.12623119 25.42085361 C-4.14000638 22.04619076 -4.13943948 18.67156566 -4.140625 15.296875 C-4.14781052 14.01978165 -4.15499603 12.74268829 -4.16239929 11.42689514 C-4.15932266 10.24904953 -4.15624603 9.07120392 -4.15307617 7.85766602 C-4.15450119 6.81699478 -4.15592621 5.77632355 -4.15739441 4.70411682 C-3.85301028 1.65871634 -3.16167103 0.38146951 0 0 Z " fill="#40CAD1" transform="translate(241.91015625,487.76953125)"/>
<path d="M0 0 C0.91644287 0.00523682 1.83288574 0.01047363 2.77709961 0.01586914 C4.26113281 0.02070312 4.26113281 0.02070312 5.77514648 0.02563477 C6.81606445 0.03401367 7.85698242 0.04239258 8.92944336 0.05102539 C10.49662109 0.05779297 10.49662109 0.05779297 12.09545898 0.06469727 C14.68600996 0.07652627 17.27644895 0.0930085 19.86694336 0.11352539 C20.53999354 1.71502425 21.20516563 3.31983568 21.86694336 4.92602539 C22.23819336 5.8193457 22.60944336 6.71266602 22.99194336 7.63305664 C23.86694336 10.11352539 23.86694336 10.11352539 23.86694336 13.11352539 C24.7215918 13.16250977 25.57624023 13.21149414 26.45678711 13.26196289 C27.56151367 13.33672852 28.66624023 13.41149414 29.80444336 13.48852539 C30.9065918 13.55813477 32.00874023 13.62774414 33.14428711 13.69946289 C34.49200195 13.90442383 34.49200195 13.90442383 35.86694336 14.11352539 C36.36194336 15.10352539 36.36194336 15.10352539 36.86694336 16.11352539 C19.04694336 16.11352539 1.22694336 16.11352539 -17.13305664 16.11352539 C-16.80305664 15.45352539 -16.47305664 14.79352539 -16.13305664 14.11352539 C-13.48445237 13.51996925 -10.84108342 13.3714327 -8.13305664 13.11352539 C-7.7837207 12.25887695 -7.43438477 11.40422852 -7.07446289 10.52368164 C-6.61942383 9.41895508 -6.16438477 8.31422852 -5.69555664 7.17602539 C-5.2430957 6.07387695 -4.79063477 4.97172852 -4.32446289 3.83618164 C-2.70887747 0.14417169 -2.70887747 0.14417169 0 0 Z " fill="#FAFDFF" transform="translate(589.133056640625,535.886474609375)"/>
<path d="M0 0 C6.50448521 0.06664432 6.50448521 0.06664432 9.1875 1.5234375 C10.5 2.875 10.5 2.875 12.1875 5.4375 C12.5175 5.7675 12.8475 6.0975 13.1875 6.4375 C13.42578125 8.58203125 13.42578125 8.58203125 13.5 11.25 C13.53738281 12.12269531 13.57476562 12.99539063 13.61328125 13.89453125 C13.1875 16.4375 13.1875 16.4375 11.7109375 18.7421875 C8.01969482 21.22206262 4.84091738 20.91292017 0.5 20.75 C-0.6765918 20.73549805 -0.6765918 20.73549805 -1.87695312 20.72070312 C-7.64393877 20.60606123 -7.64393877 20.60606123 -8.8125 19.4375 C-8.93913091 16.61333618 -8.99770548 13.82455207 -9 11 C-9.01224609 10.21044922 -9.02449219 9.42089844 -9.03710938 8.60742188 C-9.04237279 6.54942565 -8.93456285 4.49187991 -8.8125 2.4375 C-5.97667185 -0.39832815 -3.95445524 0.07039344 0 0 Z " fill="#FAFDFF" transform="translate(137.8125,496.5625)"/>
<path d="M0 0 C0.33 0 0.66 0 1 0 C1.25394531 0.89460938 1.50789062 1.78921875 1.76953125 2.7109375 C3.79422697 9.82391346 5.85524232 16.92229966 8 24 C2.72 24 -2.56 24 -8 24 C-6.87429097 16.12003679 -6.87429097 16.12003679 -5.625 12.8515625 C-5.36203125 12.15675781 -5.0990625 11.46195313 -4.828125 10.74609375 C-4.55484375 10.04613281 -4.2815625 9.34617187 -4 8.625 C-3.72671875 7.90183594 -3.4534375 7.17867188 -3.171875 6.43359375 C-1.14941109 1.14941109 -1.14941109 1.14941109 0 0 Z " fill="#FAFDFF" transform="translate(598,503)"/>
<path d="M0 0 C2.70702609 1.35351305 2.75142894 2.57501207 3.7265625 5.40234375 C4.0359375 6.29244141 4.3453125 7.18253906 4.6640625 8.09960938 C4.98117187 9.03611328 5.29828125 9.97261719 5.625 10.9375 C5.94984375 11.87013672 6.2746875 12.80277344 6.609375 13.76367188 C9 20.70954241 9 20.70954241 9 23 C3.72 23 -1.56 23 -7 23 C-5.875 15.125 -5.875 15.125 -4.58984375 11.81640625 C-4.32236328 11.11708984 -4.05488281 10.41777344 -3.77929688 9.69726562 C-3.36260742 8.64055664 -3.36260742 8.64055664 -2.9375 7.5625 C-2.65583984 6.83095703 -2.37417969 6.09941406 -2.08398438 5.34570312 C-1.39586753 3.56126454 -0.69885394 1.78026095 0 0 Z " fill="#FAFDFF" transform="translate(493,504)"/>
</svg>
