<svg width="83" height="73" viewBox="0 0 83 73" fill="none" xmlns="http://www.w3.org/2000/svg">
<path d="M75.7064 62.2353C77.6604 61.142 78.8964 59.1668 78.8964 56.9213C78.8964 55.052 78.249 53.5001 76.9424 52.301C75.6593 51.0666 74.0467 50.4552 72.1516 50.4552H64.6535V69.16H69.4443V63.1171H71.1628L74.4234 69.16H79.5555L75.7064 62.2353ZM72.0927 59.061H69.4443V54.8639H72.0927C73.2698 54.8639 74.1056 55.7221 74.1056 56.9683C74.1056 58.2263 73.2698 59.0845 72.0927 59.061Z" fill="#0F2298"/>
<path d="M52.6236 50.0554C49.8692 50.0554 47.5385 50.9842 45.6316 52.8888C43.7365 54.7581 42.7948 57.0506 42.7948 59.8017C42.7948 62.5527 43.7365 64.857 45.6316 66.7499C47.5385 68.6192 49.8692 69.5558 52.6236 69.5597C55.378 69.5597 57.6733 68.6192 59.5802 66.7499C61.4753 64.857 62.4406 62.5527 62.4406 59.8017C62.4406 57.0506 61.4753 54.7581 59.5802 52.8888C57.6733 50.9842 55.378 50.0554 52.6236 50.0554ZM56.2255 63.4698C55.2435 64.3768 53.9552 64.8806 52.6177 64.8806C51.2802 64.8806 49.9918 64.3768 49.0099 63.4698C48.0447 62.5057 47.5621 61.2713 47.5621 59.8017C47.5621 58.3321 48.0447 57.1094 49.0099 56.1689C49.9751 55.2048 51.1757 54.7346 52.6236 54.7346C54.0596 54.7346 55.272 55.2048 56.2255 56.1689C57.1907 57.1094 57.6733 58.3321 57.6733 59.8017C57.6733 61.2713 57.1907 62.5057 56.2255 63.4698V63.4698Z" fill="#0F2298"/>
<path d="M31.4829 50.0554C28.7285 50.0554 26.3979 50.9842 24.5027 52.8888C22.5958 54.7581 21.6659 57.0506 21.6659 59.8017C21.6659 62.5527 22.5958 64.857 24.5027 66.7499C26.3978 68.6192 28.7246 69.5558 31.4829 69.5597C34.2373 69.5597 36.5444 68.6192 38.4395 66.7499C40.3347 64.857 41.2999 62.5527 41.2999 59.8017C41.2999 57.0506 40.3347 54.7581 38.4395 52.8888C36.5444 50.9842 34.2373 50.0554 31.4829 50.0554ZM35.0966 63.4698C34.1123 64.3769 32.8222 64.8806 31.4829 64.8806C30.1436 64.8806 28.8535 64.3769 27.8692 63.4698C26.904 62.5057 26.4214 61.2713 26.4214 59.8017C26.4214 58.3321 26.904 57.1094 27.8692 56.1689C28.8344 55.2048 30.0351 54.7346 31.4829 54.7346C32.9307 54.7346 34.1314 55.2048 35.0966 56.1689C36.0618 57.1094 36.5444 58.3321 36.5444 59.8017C36.5444 61.2713 36.0619 62.5057 35.0966 63.4698V63.4698Z" fill="#0F2298"/>
<path d="M11.0721 50.4552H3.44447V69.16H11.0721C13.6617 69.16 15.804 68.2782 17.5461 66.4912C19.2882 64.6924 20.171 62.4469 20.171 59.8017C20.171 57.1564 19.2882 54.9462 17.5461 53.1474C15.804 51.3604 13.6617 50.4552 11.0721 50.4552ZM14.2502 63.2582C13.4262 64.1046 12.3786 64.5397 11.0721 64.5397H8.3647V55.0755H11.0721C12.3786 55.0755 13.4262 55.4987 14.2502 56.3805C15.0859 57.2387 15.4862 58.3908 15.4862 59.8016C15.4862 61.2242 15.0859 62.3764 14.2502 63.2582Z" fill="#0F2298"/>
<path d="M39.2399 38.2518L44.6193 46.6107H49.9751L43.7601 36.9939L49.7044 27.9059H44.3486L39.2399 35.771V27.9059H34.4492V46.6107H39.2399V38.2518Z" fill="#0F2298"/>
<path d="M27.9281 46.6107H33.0838L26.904 27.9059H21.0774L14.8976 46.6107H20.0886L20.889 43.9184H27.1276L27.9281 46.6107ZM22.125 39.8036L23.9966 33.4432L25.8917 39.8036H22.125Z" fill="#0F2298"/>
<path d="M66.3721 42.1314H57.5791V46.6107H66.3721V42.1314Z" fill="#02E8AB"/>
<path d="M66.1131 34.9716H57.5791V39.3804H66.1131V34.9716Z" fill="#02E8AB"/>
<path d="M66.1837 27.9059H57.5791V32.3734H66.1837V27.9059Z" fill="#02E8AB"/>
<path d="M45.9494 18.5829C47.525 19.6991 49.338 20.4355 51.2464 20.7343C51.2464 29.446 51.3288 37.9461 51.3288 46.6107H55.9313V20.7343C57.8396 20.4355 59.6527 19.6991 61.2282 18.5829C63.4176 16.9957 64.7831 14.7267 64.7831 12.1872C64.7831 9.63604 63.4176 7.37875 61.2282 5.77987C59.2389 4.33378 56.5315 3.44028 53.5888 3.44028C50.646 3.44028 47.9387 4.33378 45.9494 5.77987C43.76 7.37875 42.3946 9.63604 42.3946 12.1872C42.3946 14.7267 43.76 16.9957 45.9494 18.5829ZM48.5626 9.36564C49.8103 8.46038 51.5877 7.89605 53.5888 7.89605C55.5898 7.89605 57.3673 8.46038 58.615 9.36564C59.6744 10.1298 60.3217 11.1291 60.3217 12.1872C60.3217 13.2336 59.6743 14.2329 58.615 14.9971C57.7392 15.6131 56.7453 16.0414 55.6958 16.255C55.5811 16.0248 55.43 15.8144 55.2485 15.6319C54.8068 15.1951 54.2104 14.9501 53.5888 14.9501C52.9672 14.9501 52.3708 15.1951 51.9291 15.6319C51.7476 15.8144 51.5966 16.0248 51.4818 16.255C50.4323 16.0413 49.4384 15.613 48.5626 14.9971C47.5032 14.2329 46.8559 13.2336 46.8559 12.1872C46.8558 11.1291 47.5032 10.1299 48.5626 9.36564Z" fill="#0F2298"/>
<path d="M8.2352 40.2033H14.8152V35.583H8.2352V32.538H14.9447V27.9059H3.44447V46.6107H8.2352V40.2033Z" fill="#0F2298"/>
</svg>
