<?xml version="1.0" encoding="UTF-8"?>
<!-- Generator: Adobe Illustrator 26.1.0, SVG Export Plug-In . SVG Version: 6.00 Build 0)  -->
<svg xmlns="http://www.w3.org/2000/svg" xmlns:xlink="http://www.w3.org/1999/xlink" version="1.1" id="Layer_1" x="0px" y="0px" width="641.857px" height="419.172px" viewBox="0 0 641.857 419.172" xml:space="preserve">
<path id="_x23_482823_00000052086336282403062640000009542733171998657193_" fill="#482823" d="M638.272,161.722  c-1.065-28.335,4.628-54.323-18.72-75.825c-13.477-12.407-30.845-19.533-47.925-26.113c-82.129-31.688-174.621-61.7-263.508-59.688  c-87.74,2.012-187.728,38.143-268.095,73.52c-6.964,3.06-14.05,6.203-19.908,11.149c-29.329,24.73-17.941,70.166-17.941,102.903  v0.042c0,30.137-0.328,60.274-0.287,90.411c0.041,48.203,0.983,57.634,43.952,77.963c37.111,17.563,89.829,33.155,129.644,43.928  c94.09,25.527,196.208,24.73,290.829,2.472c48.131-11.317,92.001-29.633,135.912-51.89c13.722-6.958,22.653-12.659,28.427-18.444  c14.255-14.251,9.422-29.089,10.855-65.01C642.941,231.972,639.582,196.846,638.272,161.722z"></path>
<path id="_x23_482823" fill="#482823" d="M445.833,276.737c0.532,13.581-1.352,27.413-6.677,39.862  c-3.727,8.677-8.644,15.005-14.583,18.82c-1.393,0.88-11.756,4.862-18.596,4.862c-1.556,0-2.949-0.21-4.014-0.713  c-1.598-0.755-2.662-2.18-2.908-3.898c-2.334-17.562-2.294-35.628-2.253-53.107v-4.485c0.041-19.113,0.041-37.807-0.819-57.004  c0-0.042,0-0.126,0-0.168c-0.369-8.677,16.507-1.97,21.136-1.383c5.039,0.629,9.176,0.922,12.985,4.819  c4.22,4.318,6.267,9.641,7.783,15.467C441.123,252.259,445.342,263.744,445.833,276.737z M156.725,179.326  c-1.065-12.155-5.613-25.61-15.811-32.82c-3.646-2.598-8.807-5.49-13.272-5.742c-3.851-0.252-7.947,1.216-11.756,1.551  c-3.195,0.293-6.432,1.928-7.045,5.993c-0.451,3.144,1.229,8.425,1.556,11.611c0.983,8.803,2.375,14.209,2.048,22.97  c-0.655,18.652-0.491,37.724-0.327,54.532c0.041,5.072,0.327,10.228,0.573,15.173c0.533,10.563,0.287,21.545-1.106,32.024  c-0.532,4.024-2.581,8.174,0.943,11.108c5.078,4.233,16.549,4.358,22.938,5.783c7.168,1.635,15.893,4.527,19.416-4.4  c2.621-6.707,3.194-14.671,4.219-21.713c0.615-4.4,1.269-8.466,1.556-12.951c0.696-11.066,0.492-22.508,0.574-33.617  c0.163-10.981-0.819-22.76-2.99-36.13C157.503,188.296,157.135,183.727,156.725,179.326z M641.508,267.139  c-1.434,35.921,3.4,50.76-10.855,65.01c-5.775,5.785-14.705,11.485-28.427,18.444c-43.911,22.257-87.781,40.574-135.912,51.89  c-94.621,22.258-196.739,23.054-290.829-2.472c-39.815-10.773-92.532-26.365-129.644-43.928  C2.872,335.755,1.93,326.323,1.889,278.121c-0.041-30.137,0.287-60.274,0.287-90.411v-0.042c0-32.736-11.387-78.172,17.941-102.903  c5.858-4.946,12.944-8.09,19.908-11.149c80.367-35.377,180.355-71.508,268.095-73.52c88.887-2.012,181.379,28,263.508,59.688  c17.081,6.581,34.448,13.706,47.925,26.113c23.348,21.503,17.655,47.49,18.72,75.825  C639.582,196.846,642.941,231.972,641.508,267.139z M315.657,56.933c2.171,7.419,1.72,21.838,1.269,29.592  c-0.409,6.245,1.556,19.533,0.697,25.736c-1.106,7.754-4.465,5.282-6.513,12.323c-0.573,1.97-0.041,7.168,0.656,8.174  c0.574,0.838,1.762,1.928,2.868,2.096c2.007,0.293,11.347-0.88,13.559-0.922c7.659-0.126,15.319-0.629,22.979-1.341  c6.432-0.587,13.108-0.335,19.335-0.964c3.768-0.377,15.934,2.18,16.303-3.521c0.204-2.767-0.902-7.587-1.188-10.352  c-0.451-4.359-1.065-3.94-5.407-4.234c-4.998-0.335-9.667,0.461-14.418,0.964c-5.161,0.545-23.062,2.389-27.158,1.006  c-1.762-1.97-1.68-13.204-2.089-17.689c-0.328-3.521,2.868-3.437,8.07-3.814c8.316-0.629,17.041,0.21,25.437-0.168  c3.769-0.168,2.786-1.216,3.359-5.198c0.369-2.599,0.778-9.054-0.778-9.599c-3.809-1.299-8.438-1.467-12.738-1.76  c-6.882-0.461-13.681-0.377-20.522-0.838c-4.261-0.293-4.546-0.713-4.219-4.653c0.327-3.856-1.189-14.67-1.024-16.431  c0.245-3.186,12.37-1.09,22.038-1.006c3.727,0.042,11.551,2.138,14.213-1.09c1.966-2.431,0.656-3.605,1.065-6.581  c0.287-1.886,1.106-5.659-0.246-7.042c-2.007-1.97-16.056-3.395-19.948-3.814c-4.055-0.461-21.669-2.389-27.075-1.844  c-1.884,0.168-13.599,0.21-14.705,2.892C304.801,48.466,314.101,51.652,315.657,56.933z M193.672,230.253  c-0.124-5.114-0.205-10.394-0.246-15.592c-0.041-3.311-0.532-6.33-1.065-9.557c-0.532-3.311-1.106-6.707-1.188-10.478  c-0.123-11.904-1.269-23.851-2.581-35.67c-1.065-9.557-4.261-20.748-9.954-28.461c-11.223-15.131-27.527-24.814-46.287-24.646  c-5.161,0.042-9.298,0.126-14.418,1.174c-4.669,0.964-13.476,3.731-18.309,4.737c-7.496,1.593-10.527,3.521-18.023,5.03  c-15.688,3.143-33.015,9.095-36.579,26.742c-1.925,9.388-1.393,31.939,13.149,29.424c12.493-2.18,4.506-10.101,5.776-16.975  c2.949-15.76,20.563-4.485,18.883,8.719c-1.352,10.73-1.352,21.293-1.311,32.107c0,2.556,0.041,5.071,0.041,7.628  c0.041,16.012,0.123,34.958,0.369,54.239c0.041,2.683,0.246,5.449,0.41,8.132c0.287,3.982,0.573,8.005,0.41,11.987  c-0.246,5.24,0.737,8.3-3.687,11.737c-2.744,2.138-5.939,3.06-9.216,4.066c-5.202,1.551-10.445,7.544-12.493,13.874  c-3.113,9.557,5.735,10.563,13.804,13.707c1.024,0.377,2.048,0.755,3.154,1.132c4.301,1.425,8.643,2.557,12.944,3.939  c9.626,3.144,18.801,6.288,28.714,8.719c7.905,1.97,16.303,4.695,24.454,5.282c10.405,0.755,16.999-2.473,25.643-7.629  c17.818-10.604,27.075-31.437,27.977-51.891c0.123-3.27,0.45-6.665,0.778-9.975C196.089,258.337,193.877,243.793,193.672,230.253z   M208.091,71.603c-0.409-3.647-4.711-4.946,0.696-7.796c11.428-5.91,9.421,16.012,9.176,21.251  c-0.82,16.012-1.926,31.898-0.983,47.784c0.491,7.839,11.141,4.527,17.736,3.563c2.745-0.419,1.024-14.378,1.352-21.419  c0.123-2.725-0.656-12.701,2.048-14.587c3.277-2.347,19.703-1.593,24.496-1.635c2.744,0,1.434,5.491,1.762,9.892  c0.532,7.377-3.523,24.059-0.042,26.449c2.949,2.012,17.491,1.802,19.17-0.964c1.107-1.761,0.246-5.114,0.328-7.126  c0.205-3.814,1.106-9.682,1.189-13.496c0.409-14.335,0.901-22.76,0.86-35.125c0-6.539-0.86-13.036-0.819-19.533  c0-3.689-0.082-7.209-0.328-10.772c-0.205-3.018,1.802-6.581,0.123-9.389c-1.228-2.138-1.434-1.593-4.014-1.299  c-2.048,0.21-4.178,0.461-6.308,0.545c-3.646,0.126-8.642-0.293-9.708,3.605c-0.369,1.467,0.246,3.144,0.328,4.527  c0.204,4.066,0.041,7.671,0.655,11.653c0.656,4.275,0.574,8.928,0.37,13.245c-0.328,7.377-1.517,9.389-3.851,9.766  c-4.833,0.838-20.194,3.479-24.537,0.503c-2.785-1.928-2.785-9.599-2.866-12.407c-0.124-5.281-1.024-10.521-1.802-15.76  c-1.23-8.676-11.019-6.748-17.777-5.658c-8.848,1.425-16.59,5.281-21.915,12.491c-4.711,6.371-3.727,23.263,8.11,19.868  C204.568,78.897,208.5,74.831,208.091,71.603z M222.141,169.099c14.828,2.011,30.148-1.928,47.72-2.515  c31.419-1.09,62.918-1.174,94.335-0.503c13.067,0.293,25.848-0.293,38.627-0.796c13.477-0.545,24.537,3.311,37.644-1.76  c21.997-8.509,16.344-32.611,17.982-50.76c0.41-4.401,5.612-11.359,12.125-20.371c5.202-7.209,17.573-25.191,15.934-31.185  c-0.86-3.144-12.001-8.802-17.49-7.209c-9.34,2.725-16.795,34.79-22.202,32.401c-1.638-0.713-6.963-5.449-8.478-8.886  c-2.581-5.91-7.373-11.149-10.855-16.515c-4.546-6.958-12.329-12.407-18.187-18.988c-4.301-4.778-12.862-0.252-15.893,3.437  c-6.391,7.754,3.4,13.329,8.479,18.149c6.594,6.203,13.025,14.545,17.981,21.964c5.53,8.257,16.59,25.527,16.385,30.766  c-0.409,9.975,1.434,17.856-3.523,22.383c-15.237,13.999-70.332,8.382-84.545,9.808c-48.09,4.82-90.198-3.813-137.714,4.569  c-4.506,1.216-4.341,10.228-1.76,15.132C210.057,170.818,218.045,168.554,222.141,169.099z M308.57,184.985  c-3.4,0.922-9.011,3.94-10.567,7.252c-2.621,5.7-0.082,15.844,0.287,22.005c1.064,17.478,0.696,35.25-0.041,52.772  c-0.615,13.79,0.041,27.245-1.475,40.993c-0.861,7.88-0.902,16.264-3.523,23.808c-4.178,12.072-21.054,16.599-30.189,7.126  c-11.428-11.821-9.216-44.849-9.011-64.592c0.041-2.262,0.041-4.358,0.041-6.119c0-4.066,0.082-8.174,0.163-12.533  c0.287-13.077,0.082-26.155-0.409-39.107c-0.205-5.575-1.721-10.982-2.253-16.515c-0.369-3.771-1.106-9.346-4.014-11.945  c-3.564-3.144-11.265-3.018-15.647-2.389c-9.996,1.467-13.477,6.371-11.839,16.305c2.13,12.869,3.646,25.359,4.261,38.563  c0.615,13.371-0.778,26.868-1.024,40.196c-0.328,17.102-0.737,36.509,3.687,54.197c2.008,8.048,8.438,27.455,24.905,33.994  c6.021,2.389,14.418,5.323,20.726,6.413c0.696,0.126,6.226,0.293,6.923,0.335c6.349,0.503,9.83-1.467,16.097-1.928  c10.446-0.755,19.581-4.443,25.437-14.168c3.892-6.497,3.605-14.293,4.301-21.586c0.737-7.755,0.615-15.76,0.819-23.556  c0.409-16.43,0.287-32.862,0.778-49.251c0.533-17.688,1.926-35.377,2.745-52.939C330.403,198.984,325.57,180.458,308.57,184.985z   M476.76,262.78c-2.008-18.023-6.882-31.101-11.88-42.544c-0.778-1.802-2.253-3.27-3.973-4.988  c-1.475-1.425-10.077-14.587-12.412-16.348c-11.223-8.382-21.873-10.604-35.391-11.778c-9.585-0.796-19.62-2.054-29.246-1.635  c-8.52,0.377-19.662-1.928-27.649,1.719c-5.366,2.431-3.277,11.317-1.106,16.179c1.515,3.437,8.192,10.018,9.626,12.869  c2.457,4.904,4.301,15.089,3.687,20.119c-0.737,5.868-0.861,11.903-1.147,17.814c-0.656,13.33-0.819,26.7-0.778,40.03  c0,0,0.737,33.909,0.86,35.544c0.287,3.689,1.556,8.258,0.615,11.946c-0.902,3.521-3.277,4.317-5.858,6.665  c-5.694,5.281-8.931,13.161-9.381,20.916c-0.328,6.288,5.776,6.288,11.388,7.252c6.391,1.131,12.371,2.095,18.801,0.419  c3.441-0.922,8.479-1.174,11.756-2.054c1.721-0.461,3.482-0.838,5.407-1.048c9.708-1.09,20.604-4.401,29.902-7.461  c9.257-3.06,18.064-7.671,25.396-14.293C471.68,337.389,479.094,284.66,476.76,262.78z M587.233,292.372  c-1.761-2.347-4.383-0.671-6.471,0.252c-2.908,1.341-6.145,2.222-9.216,3.144c-2.581,0.754-5.284,1.467-8.397,2.557  c-7.905,2.807-16.958,2.43-24.454,6.203c-4.588,2.305-4.055-2.599-4.137-5.951c-0.083-4.15,0.163-8.383,0.327-12.533  c0.287-7.084,1.967-32.82,1.721-35.587c-0.696-7.293,1.68-11.945,9.053-12.49c6.103-0.461,12.206-0.21,18.309-0.042  c5.08,0.126,16.18,1.593,18.31-0.796c3.44-3.856,1.762-14,1.269-18.694c-0.695-7-3.318-9.389-10.691-9.348  c-6.636,0.042-13.272,0.21-19.907,0c-3.972-0.126-11.879,3.06-13.026-1.593c-0.696-2.808-2.007-13.287-1.843-17.52  c0.45-10.354-0.942-14.545-1.762-24.646c-0.082-1.174-0.163-2.347-0.204-3.437c-0.041-0.755-0.083-1.509-0.124-2.222  c-0.082-1.341-0.204-2.389-0.369-3.311c-0.163-1.006-0.573-2.18-0.982-3.395c-4.588-13.454,7.373-9.053,15.484-6.791  c1.188,0.335,2.416,0.671,3.646,1.048c2.744,0.838,5.571,2.054,8.561,3.395c5.489,2.389,11.141,4.862,15.771,4.443  c4.055-0.377,5.652-5.03,7.536-11.568c1.393-4.82,4.137-13.581-1.843-16.18c-8.151-3.605-17.368-4.234-25.724-7.713  c-11.879-4.945-23.676-10.269-36.047-13.748c-6.43-1.802-12.779-2.389-19.293-3.437c-5.243-0.88-11.06-2.599-16.343-0.838  c-3.727,1.677,0.737,15.719,3.563,22.047c1.843,4.15,5.817,5.743,8.725,8.845c3.768,3.982,3.809,8.845,3.564,14.293  c-1.23,29.131,4.424,58.556,2.908,87.855c-0.82,15.927,1.679,31.772,1.351,47.616c-0.082,4.192-0.123,8.3-0.695,12.407  c-1.065,7.67,0.614,16.305-4.301,22.97c-6.185,8.424-19.989,32.988,0.328,32.359c4.096-0.126,8.479-1.299,11.346-2.264  c8.971-3.018,17.778-6.078,26.544-9.851c4.997-2.138,9.995-3.647,14.869-5.114c8.029-2.389,15.606-4.653,22.651-9.598  c0.778-0.545,1.557-1.048,2.336-1.593c4.341-2.934,8.807-5.91,10.608-10.312C591.903,307.126,590.141,295.81,587.233,292.372z   M606.445,118.633h-9.831v2.179h3.646v11.569h2.54v-11.527h3.646V118.633z M621.477,118.633h-3.563l-3.032,10.269h-0.041  l-2.908-10.269h-3.604v13.706h2.375v-10.437h0.041l3.073,10.437h2.129l3.032-10.437h0.041v10.479h2.457V118.633z"></path>
<path id="_x23_F2F2F3_00000141456599708512734810000013880311304728319931_" fill="#F2F2F3" d="M621.477,118.633v13.748h-2.457  v-10.479h-0.041l-3.032,10.437h-2.129l-3.073-10.437h-0.041v10.437h-2.375v-13.706h3.604l2.908,10.269h0.041l3.032-10.269H621.477z   M596.614,120.812h3.646v11.569h2.54v-11.527h3.646v-2.221h-9.831V120.812z"></path>
<path id="_x23_F2F2F3_00000089564558848257546700000007773833433099101831_" fill="#F2F2F3" d="M590.182,311.234  c-1.801,4.401-6.267,7.377-10.608,10.312c-0.778,0.545-1.557,1.048-2.336,1.593c-7.045,4.945-14.623,7.209-22.651,9.598  c-4.874,1.467-9.872,2.976-14.869,5.114c-8.766,3.773-17.573,6.833-26.544,9.851c-2.866,0.964-7.25,2.138-11.346,2.264  c-20.317,0.629-6.513-23.935-0.328-32.359c4.915-6.665,3.236-15.3,4.301-22.97c0.573-4.108,0.614-8.216,0.695-12.407  c0.328-15.844-2.171-31.688-1.351-47.616c1.515-29.299-4.138-58.724-2.908-87.855c0.245-5.448,0.204-10.311-3.564-14.293  c-2.908-3.102-6.882-4.695-8.725-8.845c-2.826-6.328-7.29-20.371-3.563-22.047c5.284-1.761,11.101-0.042,16.343,0.838  c6.513,1.048,12.862,1.635,19.293,3.437c12.371,3.479,24.168,8.803,36.047,13.748c8.357,3.479,17.573,4.108,25.724,7.713  c5.98,2.599,3.236,11.36,1.843,16.18c-1.884,6.538-3.481,11.191-7.536,11.568c-4.629,0.419-10.282-2.054-15.771-4.443  c-2.99-1.341-5.817-2.557-8.561-3.395c-1.23-0.377-2.458-0.713-3.646-1.048c-8.11-2.262-20.072-6.664-15.484,6.791  c0.409,1.216,0.819,2.389,0.982,3.395c0.164,0.922,0.287,1.97,0.369,3.311c0.041,0.713,0.083,1.467,0.124,2.222  c0.041,1.09,0.123,2.264,0.204,3.437c0.82,10.101,2.212,14.293,1.762,24.646c-0.163,4.234,1.147,14.712,1.843,17.52  c1.147,4.653,9.053,1.467,13.026,1.593c6.636,0.21,13.272,0.042,19.907,0c7.373-0.042,9.996,2.347,10.691,9.348  c0.492,4.694,2.171,14.838-1.269,18.694c-2.13,2.389-13.231,0.922-18.31,0.796c-6.103-0.168-12.206-0.419-18.309,0.042  c-7.373,0.545-9.75,5.198-9.053,12.49c0.246,2.767-1.434,28.503-1.721,35.587c-0.163,4.15-0.409,8.383-0.327,12.533  c0.082,3.352-0.451,8.257,4.137,5.951c7.496-3.773,16.549-3.395,24.454-6.203c3.114-1.09,5.817-1.802,8.397-2.557  c3.072-0.922,6.308-1.802,9.216-3.144c2.088-0.922,4.711-2.599,6.471-0.252C590.141,295.81,591.903,307.126,590.182,311.234z   M476.76,262.78c2.334,21.88-5.08,74.609-21.382,89.322c-7.332,6.622-16.139,11.233-25.396,14.293  c-9.298,3.06-20.194,6.371-29.902,7.461c-1.925,0.21-3.687,0.587-5.407,1.048c-3.277,0.88-8.315,1.132-11.756,2.054  c-6.431,1.676-12.411,0.712-18.801-0.419c-5.612-0.964-11.715-0.964-11.388-7.252c0.45-7.755,3.687-15.635,9.381-20.916  c2.581-2.347,4.956-3.144,5.858-6.665c0.942-3.689-0.328-8.258-0.615-11.946c-0.123-1.635-0.86-35.544-0.86-35.544  c-0.041-13.33,0.123-26.7,0.778-40.03c0.286-5.91,0.409-11.945,1.147-17.814c0.615-5.03-1.23-15.215-3.687-20.119  c-1.434-2.85-8.11-9.431-9.626-12.869c-2.171-4.862-4.261-13.748,1.106-16.179c7.987-3.647,19.129-1.341,27.649-1.719  c9.626-0.419,19.661,0.838,29.246,1.635c13.518,1.174,24.168,3.395,35.391,11.778c2.334,1.761,10.937,14.923,12.412,16.348  c1.72,1.719,3.194,3.186,3.973,4.988C469.878,231.679,474.752,244.757,476.76,262.78z M445.833,276.737  c-0.491-12.993-4.711-24.479-7.947-36.927c-1.516-5.826-3.563-11.15-7.783-15.467c-3.809-3.897-7.946-4.191-12.985-4.819  c-4.629-0.587-21.505-7.294-21.136,1.383c0,0.042,0,0.126,0,0.168c0.86,19.197,0.86,37.891,0.819,57.004v4.485  c-0.041,17.479-0.082,35.545,2.253,53.107c0.246,1.719,1.31,3.144,2.908,3.898c1.065,0.503,2.458,0.713,4.014,0.713  c6.84,0,17.203-3.982,18.596-4.862c5.939-3.814,10.855-10.143,14.583-18.82C444.481,304.15,446.366,290.319,445.833,276.737z   M308.57,184.985c-3.4,0.922-9.011,3.94-10.567,7.252c-2.621,5.7-0.082,15.844,0.287,22.005c1.064,17.478,0.696,35.25-0.041,52.772  c-0.615,13.79,0.041,27.245-1.475,40.993c-0.861,7.88-0.902,16.264-3.523,23.808c-4.178,12.072-21.054,16.599-30.189,7.126  c-11.428-11.821-9.216-44.849-9.011-64.592c0.041-2.262,0.041-4.358,0.041-6.119c0-4.066,0.082-8.174,0.163-12.533  c0.287-13.077,0.082-26.155-0.409-39.107c-0.205-5.575-1.721-10.982-2.253-16.515c-0.369-3.771-1.106-9.346-4.014-11.945  c-3.564-3.144-11.265-3.018-15.647-2.389c-9.996,1.467-13.477,6.371-11.839,16.305c2.13,12.869,3.646,25.359,4.261,38.563  c0.615,13.371-0.778,26.868-1.024,40.196c-0.328,17.102-0.737,36.509,3.687,54.197c2.008,8.048,8.438,27.455,24.905,33.994  c6.021,2.389,14.418,5.323,20.726,6.413c0.696,0.126,6.226,0.293,6.923,0.335c6.349,0.503,9.83-1.467,16.097-1.928  c10.446-0.755,19.581-4.443,25.437-14.168c3.892-6.497,3.605-14.293,4.301-21.586c0.737-7.755,0.615-15.76,0.819-23.556  c0.409-16.43,0.287-32.862,0.778-49.251c0.533-17.688,1.926-35.377,2.745-52.939C330.403,198.984,325.57,180.458,308.57,184.985z   M193.672,230.253c0.204,13.539,2.416,28.083,1.147,41.497c-0.328,3.31-0.656,6.706-0.778,9.975  c-0.902,20.455-10.159,41.287-27.977,51.891c-8.644,5.156-15.237,8.383-25.643,7.629c-8.151-0.587-16.549-3.311-24.454-5.282  c-9.913-2.431-19.088-5.575-28.714-8.719c-4.301-1.382-8.643-2.514-12.944-3.939c-1.106-0.377-2.13-0.755-3.154-1.132  c-8.069-3.144-16.917-4.15-13.804-13.707c2.048-6.33,7.291-12.323,12.493-13.874c3.277-1.006,6.472-1.928,9.216-4.066  c4.424-3.437,3.441-6.497,3.687-11.737c0.164-3.982-0.123-8.005-0.41-11.987c-0.164-2.683-0.369-5.449-0.41-8.132  c-0.246-19.281-0.328-38.226-0.369-54.239c0-2.557-0.041-5.072-0.041-7.628c-0.041-10.815-0.041-21.378,1.311-32.107  c1.679-13.204-15.934-24.479-18.883-8.719c-1.27,6.874,6.718,14.796-5.776,16.975c-14.541,2.515-15.074-20.035-13.149-29.424  c3.564-17.647,20.891-23.599,36.579-26.742c7.496-1.509,10.527-3.437,18.023-5.03c4.833-1.006,13.641-3.773,18.309-4.737  c5.12-1.048,9.257-1.132,14.418-1.174c18.761-0.168,35.064,9.515,46.287,24.646c5.693,7.713,8.889,18.904,9.954,28.461  c1.311,11.82,2.458,23.766,2.581,35.67c0.082,3.771,0.656,7.167,1.188,10.478c0.533,3.228,1.024,6.246,1.065,9.557  C193.467,219.859,193.549,225.139,193.672,230.253z M158.241,192.698c-0.737-4.401-1.106-8.97-1.515-13.372  c-1.065-12.155-5.613-25.61-15.811-32.82c-3.646-2.598-8.807-5.49-13.272-5.742c-3.851-0.252-7.947,1.216-11.756,1.551  c-3.195,0.293-6.432,1.928-7.045,5.993c-0.451,3.144,1.229,8.425,1.556,11.611c0.983,8.803,2.375,14.209,2.048,22.97  c-0.655,18.652-0.491,37.724-0.327,54.532c0.041,5.072,0.327,10.228,0.573,15.173c0.533,10.563,0.287,21.545-1.106,32.024  c-0.532,4.024-2.581,8.174,0.943,11.108c5.078,4.233,16.549,4.358,22.938,5.783c7.168,1.635,15.893,4.527,19.416-4.4  c2.621-6.707,3.194-14.671,4.219-21.713c0.615-4.4,1.269-8.466,1.556-12.951c0.696-11.066,0.492-22.508,0.574-33.617  C161.394,217.847,160.412,206.068,158.241,192.698z"></path>
<path id="_x23_F2F2F3" fill="#F2F2F3" d="M470.574,92.394c-6.513,9.012-11.715,15.97-12.125,20.371  c-1.638,18.149,4.014,42.25-17.982,50.76c-13.107,5.072-24.167,1.216-37.644,1.76c-12.779,0.503-25.56,1.09-38.627,0.796  c-31.417-0.671-62.917-0.587-94.335,0.503c-17.572,0.587-32.892,4.526-47.72,2.515c-4.096-0.545-12.084,1.719-13.435-0.88  c-2.581-4.904-2.745-13.916,1.76-15.132c47.516-8.382,89.624,0.252,137.714-4.569c14.213-1.425,69.307,4.192,84.545-9.808  c4.957-4.527,3.114-12.407,3.523-22.383c0.204-5.24-10.855-22.509-16.385-30.766c-4.956-7.419-11.388-15.76-17.981-21.964  c-5.079-4.82-14.87-10.395-8.479-18.149c3.031-3.689,11.592-8.215,15.893-3.437c5.858,6.581,13.64,12.03,18.187,18.988  c3.482,5.365,8.275,10.605,10.855,16.515c1.515,3.437,6.84,8.174,8.478,8.886c5.407,2.389,12.862-29.676,22.202-32.401  c5.489-1.593,16.63,4.066,17.49,7.209C488.147,67.202,475.776,85.184,470.574,92.394z M316.926,86.526  c-0.409,6.245,1.556,19.533,0.697,25.736c-1.106,7.754-4.465,5.282-6.513,12.323c-0.573,1.97-0.041,7.168,0.656,8.174  c0.574,0.838,1.762,1.928,2.868,2.096c2.007,0.293,11.347-0.88,13.559-0.922c7.659-0.126,15.319-0.629,22.979-1.341  c6.432-0.587,13.108-0.335,19.335-0.964c3.768-0.377,15.934,2.18,16.303-3.521c0.204-2.767-0.902-7.587-1.188-10.352  c-0.451-4.359-1.065-3.94-5.407-4.234c-4.998-0.335-9.667,0.461-14.418,0.964c-5.161,0.545-23.062,2.389-27.158,1.006  c-1.762-1.97-1.68-13.204-2.089-17.689c-0.328-3.521,2.868-3.437,8.07-3.814c8.316-0.629,17.041,0.21,25.437-0.168  c3.769-0.168,2.786-1.216,3.359-5.198c0.369-2.599,0.778-9.054-0.778-9.599c-3.809-1.299-8.438-1.467-12.738-1.76  c-6.882-0.461-13.681-0.377-20.522-0.838c-4.261-0.293-4.546-0.713-4.219-4.653c0.327-3.856-1.189-14.67-1.024-16.431  c0.245-3.186,12.37-1.09,22.038-1.006c3.727,0.042,11.551,2.138,14.213-1.09c1.966-2.431,0.656-3.605,1.065-6.581  c0.287-1.886,1.106-5.659-0.246-7.042c-2.007-1.97-16.056-3.395-19.948-3.814c-4.055-0.461-21.669-2.389-27.075-1.844  c-1.884,0.168-13.599,0.21-14.705,2.892c-4.67,11.611,4.629,14.796,6.185,20.078C317.828,64.352,317.377,78.771,316.926,86.526z   M208.091,71.603c-0.409-3.647-4.711-4.946,0.696-7.796c11.428-5.91,9.421,16.012,9.176,21.251  c-0.82,16.012-1.926,31.898-0.983,47.784c0.491,7.839,11.141,4.527,17.736,3.563c2.745-0.419,1.024-14.378,1.352-21.419  c0.123-2.725-0.656-12.701,2.048-14.587c3.277-2.347,19.703-1.593,24.496-1.635c2.744,0,1.434,5.491,1.762,9.892  c0.532,7.377-3.523,24.059-0.042,26.449c2.949,2.012,17.491,1.802,19.17-0.964c1.107-1.761,0.246-5.114,0.328-7.126  c0.205-3.814,1.106-9.682,1.189-13.496c0.409-14.335,0.901-22.76,0.86-35.125c0-6.539-0.86-13.036-0.819-19.533  c0-3.689-0.082-7.209-0.328-10.772c-0.205-3.018,1.802-6.581,0.123-9.389c-1.228-2.138-1.434-1.593-4.014-1.299  c-2.048,0.21-4.178,0.461-6.308,0.545c-3.646,0.126-8.642-0.293-9.708,3.605c-0.369,1.467,0.246,3.144,0.328,4.527  c0.204,4.066,0.041,7.671,0.655,11.653c0.656,4.275,0.574,8.928,0.37,13.245c-0.328,7.377-1.517,9.389-3.851,9.766  c-4.833,0.838-20.194,3.479-24.537,0.503c-2.785-1.928-2.785-9.599-2.866-12.407c-0.124-5.281-1.024-10.521-1.802-15.76  c-1.23-8.676-11.019-6.748-17.777-5.658c-8.848,1.425-16.59,5.281-21.915,12.491c-4.711,6.371-3.727,23.263,8.11,19.868  C204.568,78.897,208.5,74.831,208.091,71.603z"></path>
<g>
</g>
<g>
</g>
<g>
</g>
<g>
</g>
<g>
</g>
</svg>
